  999
DXF file created by gear template generator.  2020-02-29T10:42:54
  0
SECTION
  2
HEADER
  9
$ACADVER
  1
AC1006
  9
$INSBASE
  10
0.0
  20
0.0
  30
0.0
  9
$EXTMIN
  10
0.0
  20
0.0
  9
$EXTMAX
  10
10000.0
  20
10000.0
  0
ENDSEC
  0
SECTION
  2
ENTITIES
 0
LWPOLYLINE
 8
a
 90
576
 70
1
 10
39.74254
 20
18.84653
 10
39.80129
 20
18.66529
 10
39.87174
 20
18.5924
 10
40.01837
 20
18.49757
 10
40.32161
 20
18.39194
 10
40.63223
 20
18.34526
 10
40.93582
 20
18.24424
 10
41.23602
 20
18.11935
 10
41.53324
 20
17.97561
 10
41.29101
 20
16.58766
 10
40.96266
 20
16.5531
 10
40.63791
 20
16.53729
 10
40.31805
 20
16.54507
 10
40.00998
 20
16.60638
 10
39.68889
 20
16.6097
 10
39.5188
 20
16.57015
 10
39.42783
 20
16.52544
 10
39.31116
 20
16.37481
 10
38.98563
 20
15.20298
 10
39.00789
 20
15.01376
 10
39.06277
 20
14.92853
 10
39.18808
 20
14.80691
 10
39.46488
 20
14.64415
 10
39.76043
 20
14.53777
 10
40.03847
 20
14.37946
 10
40.30854
 20
14.19841
 10
40.57201
 20
13.99944
 10
40.06366
 20
12.68543
 10
39.73488
 20
12.71558
 10
39.41328
 20
12.76343
 10
39.10108
 20
12.83347
 10
38.81089
 20
12.95369
 10
38.49662
 20
13.0196
 10
38.32209
 20
13.01399
 10
38.22414
 20
12.98788
 10
38.08032
 20
12.86291
 10
37.53244
 20
11.7771
 10
37.51736
 20
11.58717
 10
37.55456
 20
11.49288
 10
37.65373
 20
11.34915
 10
37.89346
 20
11.13551
 10
38.16257
 20
10.97352
 10
38.40439
 20
10.76401
 10
38.63395
 20
10.53375
 10
38.85354
 20
10.2872
 10
38.0986
 20
9.09761
 10
37.78202
 20
9.19133
 10
37.47594
 20
9.301
 10
37.18341
 20
9.4306
 10
36.92225
 20
9.60513
 10
36.62687
 20
9.73108
 10
36.4546
 20
9.75962
 10
36.35344
 20
9.75313
 10
36.188
 20
9.65862
 10
35.43881
 20
8.70056
 10
35.38697
 20
8.51722
 10
35.40506
 20
8.41748
 10
35.47429
 20
8.25717
 10
35.66773
 20
8.00087
 10
35.90007
 20
7.78948
 10
36.09637
 20
7.53682
 10
36.2766
 20
7.2662
 10
36.44387
 20
6.98155
 10
35.47136
 20
5.9621
 10
35.17915
 20
6.11578
 10
34.90034
 20
6.28306
 10
34.63871
 20
6.46723
 10
34.41662
 20
6.68936
 10
34.15149
 20
6.87051
 10
33.9881
 20
6.93212
 10
33.88761
 20
6.94549
 10
33.70692
 20
6.88506
 10
32.78521
 20
6.09158
 10
32.6986
 20
5.92187
 10
32.69688
 20
5.82052
 10
32.73351
 20
5.64978
 10
32.87323
 20
5.36067
 10
33.05987
 20
5.10802
 10
33.2031
 20
4.82191
 10
33.32707
 20
4.52134
 10
33.4356
 20
4.20952
 10
32.28289
 20
3.39938
 10
32.02627
 20
3.60712
 10
31.78546
 20
3.82557
 10
31.56479
 20
4.05726
 10
31.3903
 20
4.31844
 10
31.1656
 20
4.54784
 10
31.01737
 20
4.64014
 10
30.92142
 20
4.67285
 10
30.73241
 20
4.64884
 10
29.67362
 20
4.05041
 10
29.55556
 20
3.90087
 10
29.5341
 20
3.8018
 10
29.53672
 20
3.6272
 10
29.61735
 20
3.31638
 10
29.75111
 20
3.03217
 10
29.83578
 20
2.72362
 10
29.89873
 20
2.40463
 10
29.94433
 20
2.07764
 10
28.65572
 20
1.50795
 10
28.44456
 20
1.76176
 10
28.25099
 20
2.023
 10
28.07976
 20
2.29328
 10
27.95958
 20
2.58348
 10
27.78396
 20
2.85231
 10
27.65658
 20
2.97175
 10
27.56886
 20
3.02256
 10
27.3788
 20
3.03588
 10
26.2236
 20
2.65551
 10
26.07863
 20
2.53187
 10
26.03826
 20
2.43889
 10
26.00676
 20
2.26714
 10
26.02521
 20
1.94656
 10
26.10095
 20
1.64172
 10
26.1238
 20
1.32258
 10
26.1233
 20
0.99744
 10
26.10424
 20
0.66783
 10
24.72925
 20
0.36049
 10
24.57166
 20
0.65061
 10
24.43278
 20
0.94459
 10
24.31757
 20
1.24309
 10
24.25631
 20
1.55116
 10
24.13651
 20
1.84909
 10
24.03488
 20
1.99109
 10
23.95875
 20
2.05803
 10
23.77494
 20
2.10818
 10
22.56774
 20
1.96048
 10
22.40144
 20
1.8675
 10
22.3437
 20
1.78418
 10
22.2793
 20
1.62187
 10
22.23485
 20
1.30385
 10
22.24967
 20
0.9901
 10
22.20981
 20
0.67263
 10
22.1459
 20
0.35384
 10
22.0629
 20
0.03428
 10
20.65437
 20
0.00109
 10
20.55641
 20
0.31638
 10
20.47755
 20
0.63181
 10
20.42278
 20
0.94704
 10
20.4228
 20
1.26115
 10
20.36342
 20
1.57672
 10
20.29145
 20
1.73582
 10
20.22985
 20
1.81632
 10
20.05935
 20
1.90137
 10
18.84653
 20
1.99203
 10
18.66529
 20
1.93328
 10
18.5924
 20
1.86283
 10
18.49757
 20
1.7162
 10
18.39194
 20
1.41296
 10
18.34526
 20
1.10234
 10
18.24424
 20
0.79875
 10
18.11935
 20
0.49855
 10
17.97561
 20
0.20133
 10
16.58766
 20
0.44356
 10
16.5531
 20
0.77191
 10
16.53729
 20
1.09666
 10
16.54507
 20
1.41652
 10
16.60638
 20
1.72459
 10
16.6097
 20
2.04568
 10
16.57015
 20
2.21577
 10
16.52544
 20
2.30674
 10
16.37481
 20
2.42342
 10
15.20298
 20
2.74894
 10
15.01376
 20
2.72668
 10
14.92853
 20
2.6718
 10
14.80691
 20
2.54649
 10
14.64415
 20
2.26969
 10
14.53777
 20
1.97414
 10
14.37946
 20
1.6961
 10
14.19841
 20
1.42603
 10
13.99944
 20
1.16256
 10
12.68543
 20
1.67091
 10
12.71558
 20
1.99969
 10
12.76343
 20
2.32129
 10
12.83347
 20
2.63349
 10
12.95369
 20
2.92368
 10
13.0196
 20
3.23795
 10
13.01399
 20
3.41248
 10
12.98788
 20
3.51043
 10
12.86291
 20
3.65425
 10
11.7771
 20
4.20213
 10
11.58717
 20
4.21721
 10
11.49288
 20
4.18002
 10
11.34915
 20
4.08084
 10
11.13551
 20
3.84111
 10
10.97352
 20
3.572
 10
10.76401
 20
3.33018
 10
10.53375
 20
3.10062
 10
10.2872
 20
2.88103
 10
9.09761
 20
3.63597
 10
9.19133
 20
3.95255
 10
9.301
 20
4.25863
 10
9.4306
 20
4.55116
 10
9.60513
 20
4.81232
 10
9.73108
 20
5.1077
 10
9.75962
 20
5.27997
 10
9.75313
 20
5.38113
 10
9.65862
 20
5.54657
 10
8.70056
 20
6.29576
 10
8.51722
 20
6.3476
 10
8.41748
 20
6.32951
 10
8.25717
 20
6.26028
 10
8.00087
 20
6.06684
 10
7.78948
 20
5.8345
 10
7.53682
 20
5.6382
 10
7.2662
 20
5.45797
 10
6.98155
 20
5.2907
 10
5.9621
 20
6.26321
 10
6.11578
 20
6.55542
 10
6.28306
 20
6.83423
 10
6.46723
 20
7.09586
 10
6.68936
 20
7.31795
 10
6.87051
 20
7.58308
 10
6.93212
 20
7.74647
 10
6.94549
 20
7.84696
 10
6.88506
 20
8.02765
 10
6.09158
 20
8.94936
 10
5.92187
 20
9.03597
 10
5.82052
 20
9.03769
 10
5.64978
 20
9.00106
 10
5.36067
 20
8.86134
 10
5.10802
 20
8.6747
 10
4.82191
 20
8.53147
 10
4.52134
 20
8.4075
 10
4.20952
 20
8.29897
 10
3.39938
 20
9.45168
 10
3.60712
 20
9.7083
 10
3.82557
 20
9.94911
 10
4.05726
 20
10.16978
 10
4.31844
 20
10.34428
 10
4.54784
 20
10.56897
 10
4.64014
 20
10.7172
 10
4.67285
 20
10.81315
 10
4.64884
 20
11.00216
 10
4.05041
 20
12.06095
 10
3.90087
 20
12.17901
 10
3.8018
 20
12.20047
 10
3.6272
 20
12.19785
 10
3.31638
 20
12.11722
 10
3.03217
 20
11.98346
 10
2.72362
 20
11.89879
 10
2.40463
 20
11.83585
 10
2.07764
 20
11.79024
 10
1.50795
 20
13.07885
 10
1.76176
 20
13.29001
 10
2.023
 20
13.48358
 10
2.29328
 20
13.65481
 10
2.58348
 20
13.77499
 10
2.85231
 20
13.95061
 10
2.97175
 20
14.07799
 10
3.02256
 20
14.16571
 10
3.03588
 20
14.35578
 10
2.65551
 20
15.51097
 10
2.53187
 20
15.65594
 10
2.43889
 20
15.69631
 10
2.26714
 20
15.72781
 10
1.94656
 20
15.70936
 10
1.64172
 20
15.63362
 10
1.32258
 20
15.61077
 10
0.99744
 20
15.61127
 10
0.66783
 20
15.63033
 10
0.36049
 20
17.00532
 10
0.65061
 20
17.16291
 10
0.94459
 20
17.30179
 10
1.24309
 20
17.417
 10
1.55116
 20
17.47826
 10
1.84909
 20
17.59806
 10
1.99109
 20
17.69969
 10
2.05803
 20
17.77582
 10
2.10818
 20
17.95963
 10
1.96048
 20
19.16683
 10
1.8675
 20
19.33313
 10
1.78418
 20
19.39087
 10
1.62187
 20
19.45527
 10
1.30385
 20
19.49972
 10
0.9901
 20
19.4849
 10
0.67263
 20
19.52476
 10
0.35384
 20
19.58867
 10
0.03428
 20
19.67167
 10
0.00109
 20
21.0802
 10
0.31638
 20
21.17816
 10
0.63181
 20
21.25702
 10
0.94704
 20
21.31179
 10
1.26115
 20
21.31177
 10
1.57672
 20
21.37115
 10
1.73582
 20
21.44312
 10
1.81632
 20
21.50472
 10
1.90137
 20
21.67522
 10
1.99203
 20
22.88804
 10
1.93328
 20
23.06928
 10
1.86283
 20
23.14217
 10
1.7162
 20
23.237
 10
1.41296
 20
23.34263
 10
1.10234
 20
23.38931
 10
0.79875
 20
23.49034
 10
0.49855
 20
23.61522
 10
0.20133
 20
23.75896
 10
0.44356
 20
25.14691
 10
0.77191
 20
25.18147
 10
1.09666
 20
25.19728
 10
1.41652
 20
25.1895
 10
1.72459
 20
25.1282
 10
2.04568
 20
25.12487
 10
2.21577
 20
25.16442
 10
2.30674
 20
25.20913
 10
2.42342
 20
25.35976
 10
2.74894
 20
26.53159
 10
2.72668
 20
26.72082
 10
2.6718
 20
26.80604
 10
2.54649
 20
26.92766
 10
2.26969
 20
27.09042
 10
1.97414
 20
27.1968
 10
1.6961
 20
27.35511
 10
1.42603
 20
27.53616
 10
1.16256
 20
27.73513
 10
1.67091
 20
29.04914
 10
1.99969
 20
29.01899
 10
2.32129
 20
28.97114
 10
2.63349
 20
28.9011
 10
2.92368
 20
28.78088
 10
3.23795
 20
28.71497
 10
3.41248
 20
28.72058
 10
3.51043
 20
28.74669
 10
3.65425
 20
28.87166
 10
4.20213
 20
29.95747
 10
4.21721
 20
30.1474
 10
4.18002
 20
30.2417
 10
4.08084
 20
30.38542
 10
3.84111
 20
30.59906
 10
3.572
 20
30.76105
 10
3.33018
 20
30.97056
 10
3.10062
 20
31.20082
 10
2.88103
 20
31.44737
 10
3.63597
 20
32.63696
 10
3.95255
 20
32.54324
 10
4.25863
 20
32.43357
 10
4.55116
 20
32.30397
 10
4.81232
 20
32.12944
 10
5.1077
 20
32.0035
 10
5.27997
 20
31.97495
 10
5.38113
 20
31.98144
 10
5.54657
 20
32.07595
 10
6.29576
 20
33.03401
 10
6.3476
 20
33.21735
 10
6.32951
 20
33.31709
 10
6.26028
 20
33.4774
 10
6.06684
 20
33.7337
 10
5.8345
 20
33.94509
 10
5.6382
 20
34.19775
 10
5.45797
 20
34.46837
 10
5.2907
 20
34.75302
 10
6.26321
 20
35.77247
 10
6.55542
 20
35.61879
 10
6.83423
 20
35.45151
 10
7.09586
 20
35.26734
 10
7.31795
 20
35.04521
 10
7.58308
 20
34.86406
 10
7.74647
 20
34.80245
 10
7.84696
 20
34.78909
 10
8.02765
 20
34.84951
 10
8.94936
 20
35.643
 10
9.03597
 20
35.8127
 10
9.03769
 20
35.91405
 10
9.00106
 20
36.08479
 10
8.86134
 20
36.3739
 10
8.6747
 20
36.62655
 10
8.53147
 20
36.91266
 10
8.4075
 20
37.21323
 10
8.29897
 20
37.52505
 10
9.45168
 20
38.33519
 10
9.7083
 20
38.12745
 10
9.94911
 20
37.909
 10
10.16978
 20
37.67731
 10
10.34428
 20
37.41613
 10
10.56897
 20
37.18673
 10
10.7172
 20
37.09444
 10
10.81315
 20
37.06172
 10
11.00216
 20
37.08573
 10
12.06095
 20
37.68416
 10
12.17901
 20
37.8337
 10
12.20047
 20
37.93277
 10
12.19785
 20
38.10738
 10
12.11722
 20
38.41819
 10
11.98346
 20
38.7024
 10
11.89879
 20
39.01095
 10
11.83585
 20
39.32994
 10
11.79024
 20
39.65693
 10
13.07885
 20
40.22662
 10
13.29001
 20
39.97281
 10
13.48358
 20
39.71157
 10
13.65481
 20
39.44129
 10
13.77499
 20
39.15109
 10
13.95061
 20
38.88226
 10
14.07799
 20
38.76282
 10
14.16571
 20
38.71201
 10
14.35578
 20
38.69869
 10
15.51097
 20
39.07906
 10
15.65594
 20
39.2027
 10
15.69631
 20
39.29568
 10
15.72781
 20
39.46743
 10
15.70936
 20
39.78801
 10
15.63362
 20
40.09285
 10
15.61077
 20
40.41199
 10
15.61127
 20
40.73713
 10
15.63033
 20
41.06674
 10
17.00532
 20
41.37408
 10
17.16291
 20
41.08396
 10
17.30179
 20
40.78998
 10
17.417
 20
40.49148
 10
17.47826
 20
40.18341
 10
17.59806
 20
39.88549
 10
17.69969
 20
39.74348
 10
17.77582
 20
39.67655
 10
17.95963
 20
39.62639
 10
19.16683
 20
39.77409
 10
19.33313
 20
39.86707
 10
19.39087
 20
39.95039
 10
19.45527
 20
40.1127
 10
19.49972
 20
40.43072
 10
19.4849
 20
40.74447
 10
19.52476
 20
41.06194
 10
19.58867
 20
41.38073
 10
19.67167
 20
41.70029
 10
21.0802
 20
41.73348
 10
21.17816
 20
41.41819
 10
21.25702
 20
41.10276
 10
21.31179
 20
40.78753
 10
21.31177
 20
40.47342
 10
21.37115
 20
40.15785
 10
21.44312
 20
39.99875
 10
21.50472
 20
39.91825
 10
21.67522
 20
39.8332
 10
22.88804
 20
39.74254
 10
23.06928
 20
39.80129
 10
23.14217
 20
39.87174
 10
23.237
 20
40.01837
 10
23.34263
 20
40.32161
 10
23.38931
 20
40.63223
 10
23.49034
 20
40.93582
 10
23.61522
 20
41.23602
 10
23.75896
 20
41.53324
 10
25.14691
 20
41.29101
 10
25.18147
 20
40.96266
 10
25.19728
 20
40.63791
 10
25.1895
 20
40.31805
 10
25.1282
 20
40.00998
 10
25.12487
 20
39.68889
 10
25.16442
 20
39.5188
 10
25.20913
 20
39.42783
 10
25.35976
 20
39.31116
 10
26.53159
 20
38.98563
 10
26.72082
 20
39.00789
 10
26.80604
 20
39.06277
 10
26.92766
 20
39.18808
 10
27.09042
 20
39.46488
 10
27.1968
 20
39.76043
 10
27.35511
 20
40.03847
 10
27.53616
 20
40.30854
 10
27.73513
 20
40.57201
 10
29.04914
 20
40.06366
 10
29.01899
 20
39.73488
 10
28.97114
 20
39.41328
 10
28.9011
 20
39.10108
 10
28.78088
 20
38.81089
 10
28.71497
 20
38.49662
 10
28.72058
 20
38.32209
 10
28.74669
 20
38.22414
 10
28.87166
 20
38.08032
 10
29.95747
 20
37.53244
 10
30.1474
 20
37.51736
 10
30.2417
 20
37.55456
 10
30.38542
 20
37.65373
 10
30.59906
 20
37.89346
 10
30.76105
 20
38.16257
 10
30.97056
 20
38.40439
 10
31.20082
 20
38.63395
 10
31.44737
 20
38.85354
 10
32.63696
 20
38.0986
 10
32.54324
 20
37.78202
 10
32.43357
 20
37.47594
 10
32.30397
 20
37.18341
 10
32.12944
 20
36.92225
 10
32.0035
 20
36.62687
 10
31.97495
 20
36.4546
 10
31.98144
 20
36.35344
 10
32.07595
 20
36.188
 10
33.03401
 20
35.43881
 10
33.21735
 20
35.38697
 10
33.31709
 20
35.40506
 10
33.4774
 20
35.47429
 10
33.7337
 20
35.66773
 10
33.94509
 20
35.90007
 10
34.19775
 20
36.09637
 10
34.46837
 20
36.2766
 10
34.75302
 20
36.44387
 10
35.77247
 20
35.47136
 10
35.61879
 20
35.17915
 10
35.45151
 20
34.90034
 10
35.26734
 20
34.63871
 10
35.04521
 20
34.41662
 10
34.86406
 20
34.15149
 10
34.80245
 20
33.9881
 10
34.78909
 20
33.88761
 10
34.84951
 20
33.70692
 10
35.643
 20
32.78521
 10
35.8127
 20
32.6986
 10
35.91405
 20
32.69688
 10
36.08479
 20
32.73351
 10
36.3739
 20
32.87323
 10
36.62655
 20
33.05987
 10
36.91266
 20
33.2031
 10
37.21323
 20
33.32707
 10
37.52505
 20
33.4356
 10
38.33519
 20
32.28289
 10
38.12745
 20
32.02627
 10
37.909
 20
31.78546
 10
37.67731
 20
31.56479
 10
37.41613
 20
31.3903
 10
37.18673
 20
31.1656
 10
37.09444
 20
31.01737
 10
37.06172
 20
30.92142
 10
37.08573
 20
30.73241
 10
37.68416
 20
29.67362
 10
37.8337
 20
29.55556
 10
37.93277
 20
29.5341
 10
38.10738
 20
29.53672
 10
38.41819
 20
29.61735
 10
38.7024
 20
29.75111
 10
39.01095
 20
29.83578
 10
39.32994
 20
29.89873
 10
39.65693
 20
29.94433
 10
40.22662
 20
28.65572
 10
39.97281
 20
28.44456
 10
39.71157
 20
28.25099
 10
39.44129
 20
28.07976
 10
39.15109
 20
27.95958
 10
38.88226
 20
27.78396
 10
38.76282
 20
27.65658
 10
38.71201
 20
27.56886
 10
38.69869
 20
27.3788
 10
39.07906
 20
26.2236
 10
39.2027
 20
26.07863
 10
39.29568
 20
26.03826
 10
39.46743
 20
26.00676
 10
39.78801
 20
26.02521
 10
40.09285
 20
26.10095
 10
40.41199
 20
26.1238
 10
40.73713
 20
26.1233
 10
41.06674
 20
26.10424
 10
41.37408
 20
24.72925
 10
41.08396
 20
24.57166
 10
40.78998
 20
24.43278
 10
40.49148
 20
24.31757
 10
40.18341
 20
24.25631
 10
39.88549
 20
24.13651
 10
39.74348
 20
24.03488
 10
39.67655
 20
23.95875
 10
39.62639
 20
23.77494
 10
39.77409
 20
22.56774
 10
39.86707
 20
22.40144
 10
39.95039
 20
22.3437
 10
40.1127
 20
22.2793
 10
40.43072
 20
22.23485
 10
40.74447
 20
22.24967
 10
41.06194
 20
22.20981
 10
41.38073
 20
22.1459
 10
41.70029
 20
22.0629
 10
41.73348
 20
20.65437
 10
41.41819
 20
20.55641
 10
41.10276
 20
20.47755
 10
40.78753
 20
20.42278
 10
40.47342
 20
20.4228
 10
40.15785
 20
20.36342
 10
39.99875
 20
20.29145
 10
39.91825
 20
20.22985
 10
39.8332
 20
20.05935
 0
CIRCLE
 8
a
 10
20.86729
 20
20.86729
 40
0.5
 0
LINE
 8
a
 10
13.91152
 20
20.86729
 30
0
 11
27.82305
 21
20.86729
 31
 0
 0
LINE
 8
a
 10
20.86729
 20
13.91152
 30
0
 11
20.86729
 21
27.82305
 31
 0
 0
LWPOLYLINE
 8
a
 90
368
 70
1
 10
42.43303
 20
18.84959
 10
42.35183
 20
18.92874
 10
42.30413
 20
18.95067
 10
42.26221
 20
18.96255
 10
42.22338
 20
18.96897
 10
42.18659
 20
18.97173
 10
42.15128
 20
18.97176
 10
42.08397
 20
18.96566
 10
42.01993
 20
18.95332
 10
41.95837
 20
18.93609
 10
41.84102
 20
18.89006
 10
41.72982
 20
18.83152
 10
41.62379
 20
18.76257
 10
41.52237
 20
18.68448
 10
41.4253
 20
18.59815
 10
41.31839
 20
18.53135
 10
41.18801
 20
18.51061
 10
41.05325
 20
18.49947
 10
40.91483
 20
18.497
 10
40.7733
 20
18.50266
 10
40.62907
 20
18.51612
 10
40.48252
 20
18.53718
 10
40.25937
 20
19.14207
 10
40.10394
 20
19.76778
 10
40.21331
 20
19.86758
 10
40.32503
 20
19.95978
 10
40.43891
 20
20.04401
 10
40.55478
 20
20.11976
 10
40.6725
 20
20.18631
 10
40.79199
 20
20.24243
 10
40.91796
 20
20.24728
 10
41.04678
 20
20.23044
 10
41.17454
 20
20.22286
 10
41.301
 20
20.22543
 10
41.42587
 20
20.23951
 10
41.5488
 20
20.2674
 10
41.6094
 20
20.28776
 10
41.66931
 20
20.31354
 10
41.72841
 20
20.34633
 10
41.75759
 20
20.3662
 10
41.78647
 20
20.38916
 10
41.81498
 20
20.4163
 10
41.84297
 20
20.4497
 10
41.8701
 20
20.49464
 10
41.89277
 20
20.60574
 10
41.90185
 20
21.24213
 10
42.01217
 20
21.86895
 10
42.01073
 20
21.98233
 10
41.9925
 20
22.03156
 10
41.97126
 20
22.06961
 10
41.94835
 20
22.10161
 10
41.92428
 20
22.12958
 10
41.89934
 20
22.15456
 10
41.84743
 20
22.19784
 10
41.79341
 20
22.2344
 10
41.7377
 20
22.26575
 10
41.62218
 20
22.31618
 10
41.50216
 20
22.35341
 10
41.37842
 20
22.37963
 10
41.25149
 20
22.39613
 10
41.12181
 20
22.40372
 10
40.99897
 20
22.43209
 10
40.89212
 20
22.50961
 10
40.78895
 20
22.59703
 10
40.68933
 20
22.69316
 10
40.59325
 20
22.79723
 10
40.50079
 20
22.90874
 10
40.41205
 20
23.02726
 10
40.68198
 20
23.61276
 10
41.01452
 20
24.16512
 10
41.16242
 20
24.15835
 10
41.30661
 20
24.14455
 10
41.4467
 20
24.12358
 10
41.5822
 20
24.09522
 10
41.71249
 20
24.05903
 10
41.83667
 20
24.01422
 10
41.92918
 20
23.92857
 10
42.00835
 20
23.82558
 10
42.09334
 20
23.72988
 10
42.18457
 20
23.64227
 10
42.28283
 20
23.56393
 10
42.38947
 20
23.49673
 10
42.44672
 20
23.46828
 10
42.50731
 20
23.44415
 10
42.57229
 20
23.42554
 10
42.60697
 20
23.41896
 10
42.64363
 20
23.41477
 10
42.68298
 20
23.41381
 10
42.72639
 20
23.41762
 10
42.77735
 20
23.43022
 10
42.87194
 20
23.49276
 10
43.32835
 20
23.93633
 10
43.84959
 20
24.30154
 10
43.92874
 20
24.38274
 10
43.95067
 20
24.43044
 10
43.96255
 20
24.47236
 10
43.96897
 20
24.51119
 10
43.97173
 20
24.54799
 10
43.97176
 20
24.58329
 10
43.96566
 20
24.6506
 10
43.95332
 20
24.71464
 10
43.93609
 20
24.7762
 10
43.89006
 20
24.89355
 10
43.83152
 20
25.00475
 10
43.76257
 20
25.11078
 10
43.68448
 20
25.2122
 10
43.59815
 20
25.30927
 10
43.53135
 20
25.41619
 10
43.51061
 20
25.54656
 10
43.49947
 20
25.68133
 10
43.497
 20
25.81974
 10
43.50266
 20
25.96127
 10
43.51612
 20
26.1055
 10
43.53718
 20
26.25205
 10
44.14207
 20
26.4752
 10
44.76778
 20
26.63063
 10
44.86758
 20
26.52126
 10
44.95978
 20
26.40954
 10
45.04401
 20
26.29566
 10
45.11976
 20
26.17979
 10
45.18631
 20
26.06207
 10
45.24243
 20
25.94258
 10
45.24728
 20
25.81661
 10
45.23044
 20
25.68779
 10
45.22286
 20
25.56003
 10
45.22543
 20
25.43357
 10
45.23951
 20
25.3087
 10
45.2674
 20
25.18577
 10
45.28776
 20
25.12517
 10
45.31354
 20
25.06526
 10
45.34633
 20
25.00616
 10
45.3662
 20
24.97698
 10
45.38916
 20
24.9481
 10
45.4163
 20
24.91959
 10
45.4497
 20
24.8916
 10
45.49464
 20
24.86447
 10
45.60574
 20
24.8418
 10
46.24213
 20
24.83272
 10
46.86895
 20
24.7224
 10
46.98233
 20
24.72384
 10
47.03156
 20
24.74207
 10
47.06961
 20
24.76331
 10
47.10161
 20
24.78622
 10
47.12958
 20
24.81029
 10
47.15456
 20
24.83523
 10
47.19784
 20
24.88714
 10
47.2344
 20
24.94116
 10
47.26575
 20
24.99687
 10
47.31618
 20
25.11239
 10
47.35341
 20
25.23241
 10
47.37963
 20
25.35615
 10
47.39613
 20
25.48308
 10
47.40372
 20
25.61276
 10
47.43209
 20
25.7356
 10
47.50961
 20
25.84245
 10
47.59703
 20
25.94562
 10
47.69316
 20
26.04524
 10
47.79723
 20
26.14132
 10
47.90874
 20
26.23378
 10
48.02726
 20
26.32252
 10
48.61276
 20
26.05259
 10
49.16512
 20
25.72005
 10
49.15835
 20
25.57215
 10
49.14455
 20
25.42796
 10
49.12358
 20
25.28787
 10
49.09522
 20
25.15237
 10
49.05903
 20
25.02208
 10
49.01422
 20
24.8979
 10
48.92857
 20
24.8054
 10
48.82558
 20
24.72622
 10
48.72988
 20
24.64123
 10
48.64227
 20
24.55
 10
48.56393
 20
24.45174
 10
48.49673
 20
24.3451
 10
48.46828
 20
24.28785
 10
48.44415
 20
24.22726
 10
48.42554
 20
24.16228
 10
48.41896
 20
24.1276
 10
48.41477
 20
24.09094
 10
48.41381
 20
24.05159
 10
48.41762
 20
24.00818
 10
48.43022
 20
23.95722
 10
48.49276
 20
23.86263
 10
48.93633
 20
23.40622
 10
49.30154
 20
22.88498
 10
49.38274
 20
22.80583
 10
49.43044
 20
22.78391
 10
49.47236
 20
22.77202
 10
49.51119
 20
22.7656
 10
49.54799
 20
22.76284
 10
49.58329
 20
22.76281
 10
49.6506
 20
22.76891
 10
49.71464
 20
22.78125
 10
49.7762
 20
22.79848
 10
49.89355
 20
22.84451
 10
50.00475
 20
22.90305
 10
50.11078
 20
22.972
 10
50.2122
 20
23.05009
 10
50.30927
 20
23.13642
 10
50.41619
 20
23.20322
 10
50.54656
 20
23.22396
 10
50.68133
 20
23.2351
 10
50.81974
 20
23.23757
 10
50.96127
 20
23.23191
 10
51.1055
 20
23.21845
 10
51.25205
 20
23.19739
 10
51.4752
 20
22.5925
 10
51.63063
 20
21.96679
 10
51.52126
 20
21.86699
 10
51.40954
 20
21.77479
 10
51.29566
 20
21.69056
 10
51.17979
 20
21.61481
 10
51.06207
 20
21.54826
 10
50.94258
 20
21.49214
 10
50.81661
 20
21.48729
 10
50.68779
 20
21.50413
 10
50.56003
 20
21.51171
 10
50.43357
 20
21.50914
 10
50.3087
 20
21.49506
 10
50.18577
 20
21.46717
 10
50.12517
 20
21.44681
 10
50.06526
 20
21.42103
 10
50.00616
 20
21.38824
 10
49.97698
 20
21.36837
 10
49.9481
 20
21.34541
 10
49.91959
 20
21.31827
 10
49.8916
 20
21.28487
 10
49.86447
 20
21.23993
 10
49.8418
 20
21.12883
 10
49.83272
 20
20.49244
 10
49.7224
 20
19.86562
 10
49.72384
 20
19.75224
 10
49.74207
 20
19.70301
 10
49.76331
 20
19.66497
 10
49.78622
 20
19.63296
 10
49.81029
 20
19.605
 10
49.83523
 20
19.58001
 10
49.88714
 20
19.53673
 10
49.94116
 20
19.50017
 10
49.99687
 20
19.46882
 10
50.11239
 20
19.41839
 10
50.23241
 20
19.38116
 10
50.35615
 20
19.35494
 10
50.48308
 20
19.33844
 10
50.61276
 20
19.33085
 10
50.7356
 20
19.30248
 10
50.84245
 20
19.22496
 10
50.94562
 20
19.13754
 10
51.04524
 20
19.04141
 10
51.14132
 20
18.93734
 10
51.23378
 20
18.82583
 10
51.32252
 20
18.70731
 10
51.05259
 20
18.12181
 10
50.72005
 20
17.56945
 10
50.57215
 20
17.57622
 10
50.42796
 20
17.59002
 10
50.28787
 20
17.61099
 10
50.15237
 20
17.63935
 10
50.02208
 20
17.67554
 10
49.8979
 20
17.72035
 10
49.8054
 20
17.806
 10
49.72622
 20
17.90899
 10
49.64123
 20
18.00469
 10
49.55
 20
18.0923
 10
49.45174
 20
18.17064
 10
49.3451
 20
18.23784
 10
49.28785
 20
18.26629
 10
49.22726
 20
18.29043
 10
49.16228
 20
18.30903
 10
49.1276
 20
18.31561
 10
49.09094
 20
18.3198
 10
49.05159
 20
18.32076
 10
49.00818
 20
18.31695
 10
48.95722
 20
18.30435
 10
48.86263
 20
18.24181
 10
48.40622
 20
17.79824
 10
47.88498
 20
17.43303
 10
47.80583
 20
17.35183
 10
47.78391
 20
17.30413
 10
47.77202
 20
17.26221
 10
47.7656
 20
17.22338
 10
47.76284
 20
17.18659
 10
47.76281
 20
17.15128
 10
47.76891
 20
17.08397
 10
47.78125
 20
17.01993
 10
47.79848
 20
16.95837
 10
47.84451
 20
16.84102
 10
47.90305
 20
16.72982
 10
47.972
 20
16.62379
 10
48.05009
 20
16.52237
 10
48.13642
 20
16.4253
 10
48.20322
 20
16.31839
 10
48.22396
 20
16.18801
 10
48.2351
 20
16.05325
 10
48.23757
 20
15.91483
 10
48.23191
 20
15.7733
 10
48.21845
 20
15.62907
 10
48.19739
 20
15.48252
 10
47.5925
 20
15.25937
 10
46.96679
 20
15.10394
 10
46.86699
 20
15.21331
 10
46.77479
 20
15.32503
 10
46.69056
 20
15.43891
 10
46.61481
 20
15.55478
 10
46.54826
 20
15.6725
 10
46.49214
 20
15.79199
 10
46.48729
 20
15.91796
 10
46.50413
 20
16.04678
 10
46.51171
 20
16.17454
 10
46.50914
 20
16.301
 10
46.49506
 20
16.42587
 10
46.46717
 20
16.5488
 10
46.44681
 20
16.6094
 10
46.42103
 20
16.66931
 10
46.38824
 20
16.72841
 10
46.36837
 20
16.75759
 10
46.34541
 20
16.78647
 10
46.31827
 20
16.81498
 10
46.28487
 20
16.84297
 10
46.23993
 20
16.8701
 10
46.12883
 20
16.89277
 10
45.49244
 20
16.90185
 10
44.86562
 20
17.01217
 10
44.75224
 20
17.01073
 10
44.70301
 20
16.9925
 10
44.66497
 20
16.97126
 10
44.63296
 20
16.94835
 10
44.605
 20
16.92428
 10
44.58001
 20
16.89934
 10
44.53673
 20
16.84743
 10
44.50017
 20
16.79341
 10
44.46882
 20
16.7377
 10
44.41839
 20
16.62218
 10
44.38116
 20
16.50216
 10
44.35494
 20
16.37842
 10
44.33844
 20
16.25149
 10
44.33085
 20
16.12181
 10
44.30248
 20
15.99897
 10
44.22496
 20
15.89212
 10
44.13754
 20
15.78895
 10
44.04141
 20
15.68933
 10
43.93734
 20
15.59325
 10
43.82583
 20
15.50079
 10
43.70731
 20
15.41205
 10
43.12181
 20
15.68198
 10
42.56945
 20
16.01452
 10
42.57622
 20
16.16242
 10
42.59002
 20
16.30661
 10
42.61099
 20
16.4467
 10
42.63935
 20
16.5822
 10
42.67554
 20
16.71249
 10
42.72035
 20
16.83667
 10
42.806
 20
16.92918
 10
42.90899
 20
17.00835
 10
43.00469
 20
17.09334
 10
43.0923
 20
17.18457
 10
43.17064
 20
17.28283
 10
43.23784
 20
17.38947
 10
43.26629
 20
17.44672
 10
43.29043
 20
17.50731
 10
43.30903
 20
17.57229
 10
43.31561
 20
17.60697
 10
43.3198
 20
17.64363
 10
43.32076
 20
17.68298
 10
43.31695
 20
17.72639
 10
43.30435
 20
17.77735
 10
43.24181
 20
17.87194
 10
42.79824
 20
18.32835
 0
CIRCLE
 8
a
 10
45.86729
 20
20.86729
 40
0.5
 0
LINE
 8
a
 10
43.91152
 20
20.86729
 30
0
 11
47.82305
 21
20.86729
 31
 0
 0
LINE
 8
a
 10
45.86729
 20
18.91152
 30
0
 11
45.86729
 21
22.82305
 31
 0
  0
ENDSEC
  0
EOF
