  999
file created by gear template generator
  0
SECTION
  2
HEADER
  9
$ACADVER
  1
AC1006
  9
$INSBASE
  10
0.0
  20
0.0
  30
0.0
  9
$EXTMIN
  10
0.0
  20
0.0
  9
$EXTMAX
  10
10000.0
  20
10000.0
  0
ENDSEC
  0
SECTION
  2
ENTITIES
  0
LINE
  8
0
  10
0.51491
  20
0
  30
0
  11
0.51491
  21
0.52983
  31
0
  0
LINE
  8
0
  10
0
  20
0.26491
  30
0
  11
0.67983
  21
0.26491
  31
0
  0
LINE
  8
0
  10
0.49075
  20
0.29003
  30
0
  11
0.49075
  21
0.29003
  31
0
  0
LINE
  8
0
  10
0.49075
  20
0.29003
  30
0
  11
0.49204
  21
0.28676
  31
0
  0
LINE
  8
0
  10
0.49204
  20
0.28676
  30
0
  11
0.4931
  21
0.28554
  31
0
  0
LINE
  8
0
  10
0.4931
  20
0.28554
  30
0
  11
0.49412
  21
0.28467
  31
0
  0
LINE
  8
0
  10
0.49412
  20
0.28467
  30
0
  11
0.49513
  21
0.28399
  31
0
  0
LINE
  8
0
  10
0.49513
  20
0.28399
  30
0
  11
0.4971
  21
0.283
  31
0
  0
LINE
  8
0
  10
0.4971
  20
0.283
  30
0
  11
0.49904
  21
0.2823
  31
0
  0
LINE
  8
0
  10
0.49904
  20
0.2823
  30
0
  11
0.50287
  21
0.28151
  31
0
  0
LINE
  8
0
  10
0.50287
  20
0.28151
  30
0
  11
0.50667
  21
0.28127
  31
0
  0
LINE
  8
0
  10
0.50667
  20
0.28127
  30
0
  11
0.51043
  21
0.28143
  31
0
  0
LINE
  8
0
  10
0.51043
  20
0.28143
  30
0
  11
0.51428
  21
0.28041
  31
0
  0
LINE
  8
0
  10
0.51428
  20
0.28041
  30
0
  11
0.51812
  21
0.27918
  31
0
  0
LINE
  8
0
  10
0.51812
  20
0.27918
  30
0
  11
0.52197
  21
0.27778
  31
0
  0
LINE
  8
0
  10
0.52197
  20
0.27778
  30
0
  11
0.52582
  21
0.2762
  31
0
  0
LINE
  8
0
  10
0.52582
  20
0.2762
  30
0
  11
0.52966
  21
0.27445
  31
0
  0
LINE
  8
0
  10
0.52966
  20
0.27445
  30
0
  11
0.52966
  21
0.25538
  31
0
  0
LINE
  8
0
  10
0.52966
  20
0.25538
  30
0
  11
0.52582
  21
0.25363
  31
0
  0
LINE
  8
0
  10
0.52582
  20
0.25363
  30
0
  11
0.52197
  21
0.25205
  31
0
  0
LINE
  8
0
  10
0.52197
  20
0.25205
  30
0
  11
0.51812
  21
0.25065
  31
0
  0
LINE
  8
0
  10
0.51812
  20
0.25065
  30
0
  11
0.51428
  21
0.24942
  31
0
  0
LINE
  8
0
  10
0.51428
  20
0.24942
  30
0
  11
0.51043
  21
0.2484
  31
0
  0
LINE
  8
0
  10
0.51043
  20
0.2484
  30
0
  11
0.50667
  21
0.24856
  31
0
  0
LINE
  8
0
  10
0.50667
  20
0.24856
  30
0
  11
0.50287
  21
0.24832
  31
0
  0
LINE
  8
0
  10
0.50287
  20
0.24832
  30
0
  11
0.49904
  21
0.24753
  31
0
  0
LINE
  8
0
  10
0.49904
  20
0.24753
  30
0
  11
0.4971
  21
0.24683
  31
0
  0
LINE
  8
0
  10
0.4971
  20
0.24683
  30
0
  11
0.49513
  21
0.24583
  31
0
  0
LINE
  8
0
  10
0.49513
  20
0.24583
  30
0
  11
0.49412
  21
0.24516
  31
0
  0
LINE
  8
0
  10
0.49412
  20
0.24516
  30
0
  11
0.4931
  21
0.24429
  31
0
  0
LINE
  8
0
  10
0.4931
  20
0.24429
  30
0
  11
0.49204
  21
0.24307
  31
0
  0
LINE
  8
0
  10
0.49204
  20
0.24307
  30
0
  11
0.49075
  21
0.2398
  31
0
  0
LINE
  8
0
  10
0.49075
  20
0.2398
  30
0
  11
0.48746
  21
0.21901
  31
0
  0
LINE
  8
0
  10
0.48746
  20
0.21901
  30
0
  11
0.48767
  21
0.21551
  31
0
  0
LINE
  8
0
  10
0.48767
  20
0.21551
  30
0
  11
0.48831
  21
0.21402
  31
0
  0
LINE
  8
0
  10
0.48831
  20
0.21402
  30
0
  11
0.48901
  21
0.21287
  31
0
  0
LINE
  8
0
  10
0.48901
  20
0.21287
  30
0
  11
0.48975
  21
0.21192
  31
0
  0
LINE
  8
0
  10
0.48975
  20
0.21192
  30
0
  11
0.49132
  21
0.21036
  31
0
  0
LINE
  8
0
  10
0.49132
  20
0.21036
  30
0
  11
0.49295
  21
0.2091
  31
0
  0
LINE
  8
0
  10
0.49295
  20
0.2091
  30
0
  11
0.49636
  21
0.20717
  31
0
  0
LINE
  8
0
  10
0.49636
  20
0.20717
  30
0
  11
0.49989
  21
0.20577
  31
0
  0
LINE
  8
0
  10
0.49989
  20
0.20577
  30
0
  11
0.50352
  21
0.20476
  31
0
  0
LINE
  8
0
  10
0.50352
  20
0.20476
  30
0
  11
0.50686
  21
0.20259
  31
0
  0
LINE
  8
0
  10
0.50686
  20
0.20259
  30
0
  11
0.51014
  21
0.20024
  31
0
  0
LINE
  8
0
  10
0.51014
  20
0.20024
  30
0
  11
0.51336
  21
0.19771
  31
0
  0
LINE
  8
0
  10
0.51336
  20
0.19771
  30
0
  11
0.51653
  21
0.19502
  31
0
  0
LINE
  8
0
  10
0.51653
  20
0.19502
  30
0
  11
0.51965
  21
0.19217
  31
0
  0
LINE
  8
0
  10
0.51965
  20
0.19217
  30
0
  11
0.51375
  21
0.17404
  31
0
  0
LINE
  8
0
  10
0.51375
  20
0.17404
  30
0
  11
0.50956
  21
0.17356
  31
0
  0
LINE
  8
0
  10
0.50956
  20
0.17356
  30
0
  11
0.50542
  21
0.17325
  31
0
  0
LINE
  8
0
  10
0.50542
  20
0.17325
  30
0
  11
0.50132
  21
0.1731
  31
0
  0
LINE
  8
0
  10
0.50132
  20
0.1731
  30
0
  11
0.49728
  21
0.17312
  31
0
  0
LINE
  8
0
  10
0.49728
  20
0.17312
  30
0
  11
0.49331
  21
0.17333
  31
0
  0
LINE
  8
0
  10
0.49331
  20
0.17333
  30
0
  11
0.48978
  21
0.17465
  31
0
  0
LINE
  8
0
  10
0.48978
  20
0.17465
  30
0
  11
0.4861
  21
0.1756
  31
0
  0
LINE
  8
0
  10
0.4861
  20
0.1756
  30
0
  11
0.48221
  21
0.17603
  31
0
  0
LINE
  8
0
  10
0.48221
  20
0.17603
  30
0
  11
0.48014
  21
0.17597
  31
0
  0
LINE
  8
0
  10
0.48014
  20
0.17597
  30
0
  11
0.47796
  21
0.17563
  31
0
  0
LINE
  8
0
  10
0.47796
  20
0.17563
  30
0
  11
0.4768
  21
0.1753
  31
0
  0
LINE
  8
0
  10
0.4768
  20
0.1753
  30
0
  11
0.47556
  21
0.17479
  31
0
  0
LINE
  8
0
  10
0.47556
  20
0.17479
  30
0
  11
0.47417
  21
0.17395
  31
0
  0
LINE
  8
0
  10
0.47417
  20
0.17395
  30
0
  11
0.47194
  21
0.17124
  31
0
  0
LINE
  8
0
  10
0.47194
  20
0.17124
  30
0
  11
0.46238
  21
0.15249
  31
0
  0
LINE
  8
0
  10
0.46238
  20
0.15249
  30
0
  11
0.4615
  21
0.14909
  31
0
  0
LINE
  8
0
  10
0.4615
  20
0.14909
  30
0
  11
0.46164
  21
0.14748
  31
0
  0
LINE
  8
0
  10
0.46164
  20
0.14748
  30
0
  11
0.46196
  21
0.14617
  31
0
  0
LINE
  8
0
  10
0.46196
  20
0.14617
  30
0
  11
0.46237
  21
0.14504
  31
0
  0
LINE
  8
0
  10
0.46237
  20
0.14504
  30
0
  11
0.46338
  21
0.14307
  31
0
  0
LINE
  8
0
  10
0.46338
  20
0.14307
  30
0
  11
0.46455
  21
0.14137
  31
0
  0
LINE
  8
0
  10
0.46455
  20
0.14137
  30
0
  11
0.46718
  21
0.13847
  31
0
  0
LINE
  8
0
  10
0.46718
  20
0.13847
  30
0
  11
0.47011
  21
0.13605
  31
0
  0
LINE
  8
0
  10
0.47011
  20
0.13605
  30
0
  11
0.47325
  21
0.13397
  31
0
  0
LINE
  8
0
  10
0.47325
  20
0.13397
  30
0
  11
0.47576
  21
0.13088
  31
0
  0
LINE
  8
0
  10
0.47576
  20
0.13088
  30
0
  11
0.47815
  21
0.12763
  31
0
  0
LINE
  8
0
  10
0.47815
  20
0.12763
  30
0
  11
0.48044
  21
0.12423
  31
0
  0
LINE
  8
0
  10
0.48044
  20
0.12423
  30
0
  11
0.48262
  21
0.12069
  31
0
  0
LINE
  8
0
  10
0.48262
  20
0.12069
  30
0
  11
0.4847
  21
0.11702
  31
0
  0
LINE
  8
0
  10
0.4847
  20
0.11702
  30
0
  11
0.47349
  21
0.10159
  31
0
  0
LINE
  8
0
  10
0.47349
  20
0.10159
  30
0
  11
0.46936
  21
0.10243
  31
0
  0
LINE
  8
0
  10
0.46936
  20
0.10243
  30
0
  11
0.46532
  21
0.10342
  31
0
  0
LINE
  8
0
  10
0.46532
  20
0.10342
  30
0
  11
0.46138
  21
0.10454
  31
0
  0
LINE
  8
0
  10
0.46138
  20
0.10454
  30
0
  11
0.45754
  21
0.10581
  31
0
  0
LINE
  8
0
  10
0.45754
  20
0.10581
  30
0
  11
0.45383
  21
0.10724
  31
0
  0
LINE
  8
0
  10
0.45383
  20
0.10724
  30
0
  11
0.45088
  21
0.10958
  31
0
  0
LINE
  8
0
  10
0.45088
  20
0.10958
  30
0
  11
0.44767
  21
0.11162
  31
0
  0
LINE
  8
0
  10
0.44767
  20
0.11162
  30
0
  11
0.4441
  21
0.11323
  31
0
  0
LINE
  8
0
  10
0.4441
  20
0.11323
  30
0
  11
0.44213
  21
0.11381
  31
0
  0
LINE
  8
0
  10
0.44213
  20
0.11381
  30
0
  11
0.43994
  21
0.11416
  31
0
  0
LINE
  8
0
  10
0.43994
  20
0.11416
  30
0
  11
0.43874
  21
0.11421
  31
0
  0
LINE
  8
0
  10
0.43874
  20
0.11421
  30
0
  11
0.4374
  21
0.11411
  31
0
  0
LINE
  8
0
  10
0.4374
  20
0.11411
  30
0
  11
0.43582
  21
0.11374
  31
0
  0
LINE
  8
0
  10
0.43582
  20
0.11374
  30
0
  11
0.43286
  21
0.11185
  31
0
  0
LINE
  8
0
  10
0.43286
  20
0.11185
  30
0
  11
0.41798
  21
0.09697
  31
0
  0
LINE
  8
0
  10
0.41798
  20
0.09697
  30
0
  11
0.41609
  21
0.09401
  31
0
  0
LINE
  8
0
  10
0.41609
  20
0.09401
  30
0
  11
0.41572
  21
0.09243
  31
0
  0
LINE
  8
0
  10
0.41572
  20
0.09243
  30
0
  11
0.41562
  21
0.09109
  31
0
  0
LINE
  8
0
  10
0.41562
  20
0.09109
  30
0
  11
0.41566
  21
0.08989
  31
0
  0
LINE
  8
0
  10
0.41566
  20
0.08989
  30
0
  11
0.41601
  21
0.0877
  31
0
  0
LINE
  8
0
  10
0.41601
  20
0.0877
  30
0
  11
0.4166
  21
0.08573
  31
0
  0
LINE
  8
0
  10
0.4166
  20
0.08573
  30
0
  11
0.41821
  21
0.08216
  31
0
  0
LINE
  8
0
  10
0.41821
  20
0.08216
  30
0
  11
0.42025
  21
0.07895
  31
0
  0
LINE
  8
0
  10
0.42025
  20
0.07895
  30
0
  11
0.42259
  21
0.076
  31
0
  0
LINE
  8
0
  10
0.42259
  20
0.076
  30
0
  11
0.42402
  21
0.07228
  31
0
  0
LINE
  8
0
  10
0.42402
  20
0.07228
  30
0
  11
0.42529
  21
0.06845
  31
0
  0
LINE
  8
0
  10
0.42529
  20
0.06845
  30
0
  11
0.42641
  21
0.06451
  31
0
  0
LINE
  8
0
  10
0.42641
  20
0.06451
  30
0
  11
0.4274
  21
0.06047
  31
0
  0
LINE
  8
0
  10
0.4274
  20
0.06047
  30
0
  11
0.42824
  21
0.05634
  31
0
  0
LINE
  8
0
  10
0.42824
  20
0.05634
  30
0
  11
0.41281
  21
0.04513
  31
0
  0
LINE
  8
0
  10
0.41281
  20
0.04513
  30
0
  11
0.40914
  21
0.04721
  31
0
  0
LINE
  8
0
  10
0.40914
  20
0.04721
  30
0
  11
0.4056
  21
0.04939
  31
0
  0
LINE
  8
0
  10
0.4056
  20
0.04939
  30
0
  11
0.4022
  21
0.05168
  31
0
  0
LINE
  8
0
  10
0.4022
  20
0.05168
  30
0
  11
0.39895
  21
0.05407
  31
0
  0
LINE
  8
0
  10
0.39895
  20
0.05407
  30
0
  11
0.39586
  21
0.05658
  31
0
  0
LINE
  8
0
  10
0.39586
  20
0.05658
  30
0
  11
0.39378
  21
0.05972
  31
0
  0
LINE
  8
0
  10
0.39378
  20
0.05972
  30
0
  11
0.39136
  21
0.06265
  31
0
  0
LINE
  8
0
  10
0.39136
  20
0.06265
  30
0
  11
0.38846
  21
0.06528
  31
0
  0
LINE
  8
0
  10
0.38846
  20
0.06528
  30
0
  11
0.38676
  21
0.06645
  31
0
  0
LINE
  8
0
  10
0.38676
  20
0.06645
  30
0
  11
0.38479
  21
0.06746
  31
0
  0
LINE
  8
0
  10
0.38479
  20
0.06746
  30
0
  11
0.38366
  21
0.06787
  31
0
  0
LINE
  8
0
  10
0.38366
  20
0.06787
  30
0
  11
0.38235
  21
0.06819
  31
0
  0
LINE
  8
0
  10
0.38235
  20
0.06819
  30
0
  11
0.38074
  21
0.06832
  31
0
  0
LINE
  8
0
  10
0.38074
  20
0.06832
  30
0
  11
0.37734
  21
0.06745
  31
0
  0
LINE
  8
0
  10
0.37734
  20
0.06745
  30
0
  11
0.35859
  21
0.05789
  31
0
  0
LINE
  8
0
  10
0.35859
  20
0.05789
  30
0
  11
0.35588
  21
0.05566
  31
0
  0
LINE
  8
0
  10
0.35588
  20
0.05566
  30
0
  11
0.35504
  21
0.05427
  31
0
  0
LINE
  8
0
  10
0.35504
  20
0.05427
  30
0
  11
0.35453
  21
0.05303
  31
0
  0
LINE
  8
0
  10
0.35453
  20
0.05303
  30
0
  11
0.3542
  21
0.05187
  31
0
  0
LINE
  8
0
  10
0.3542
  20
0.05187
  30
0
  11
0.35386
  21
0.04968
  31
0
  0
LINE
  8
0
  10
0.35386
  20
0.04968
  30
0
  11
0.3538
  21
0.04762
  31
0
  0
LINE
  8
0
  10
0.3538
  20
0.04762
  30
0
  11
0.35423
  21
0.04373
  31
0
  0
LINE
  8
0
  10
0.35423
  20
0.04373
  30
0
  11
0.35518
  21
0.04005
  31
0
  0
LINE
  8
0
  10
0.35518
  20
0.04005
  30
0
  11
0.35649
  21
0.03652
  31
0
  0
LINE
  8
0
  10
0.35649
  20
0.03652
  30
0
  11
0.35671
  21
0.03255
  31
0
  0
LINE
  8
0
  10
0.35671
  20
0.03255
  30
0
  11
0.35673
  21
0.02851
  31
0
  0
LINE
  8
0
  10
0.35673
  20
0.02851
  30
0
  11
0.35658
  21
0.02441
  31
0
  0
LINE
  8
0
  10
0.35658
  20
0.02441
  30
0
  11
0.35627
  21
0.02027
  31
0
  0
LINE
  8
0
  10
0.35627
  20
0.02027
  30
0
  11
0.35579
  21
0.01608
  31
0
  0
LINE
  8
0
  10
0.35579
  20
0.01608
  30
0
  11
0.33766
  21
0.01018
  31
0
  0
LINE
  8
0
  10
0.33766
  20
0.01018
  30
0
  11
0.33481
  21
0.0133
  31
0
  0
LINE
  8
0
  10
0.33481
  20
0.0133
  30
0
  11
0.33212
  21
0.01647
  31
0
  0
LINE
  8
0
  10
0.33212
  20
0.01647
  30
0
  11
0.32959
  21
0.01969
  31
0
  0
LINE
  8
0
  10
0.32959
  20
0.01969
  30
0
  11
0.32724
  21
0.02297
  31
0
  0
LINE
  8
0
  10
0.32724
  20
0.02297
  30
0
  11
0.32507
  21
0.02631
  31
0
  0
LINE
  8
0
  10
0.32507
  20
0.02631
  30
0
  11
0.32406
  21
0.02994
  31
0
  0
LINE
  8
0
  10
0.32406
  20
0.02994
  30
0
  11
0.32266
  21
0.03347
  31
0
  0
LINE
  8
0
  10
0.32266
  20
0.03347
  30
0
  11
0.32072
  21
0.03688
  31
0
  0
LINE
  8
0
  10
0.32072
  20
0.03688
  30
0
  11
0.31947
  21
0.03851
  31
0
  0
LINE
  8
0
  10
0.31947
  20
0.03851
  30
0
  11
0.31791
  21
0.04008
  31
0
  0
LINE
  8
0
  10
0.31791
  20
0.04008
  30
0
  11
0.31696
  21
0.04082
  31
0
  0
LINE
  8
0
  10
0.31696
  20
0.04082
  30
0
  11
0.31581
  21
0.04152
  31
0
  0
LINE
  8
0
  10
0.31581
  20
0.04152
  30
0
  11
0.31432
  21
0.04215
  31
0
  0
LINE
  8
0
  10
0.31432
  20
0.04215
  30
0
  11
0.31082
  21
0.04237
  31
0
  0
LINE
  8
0
  10
0.31082
  20
0.04237
  30
0
  11
0.29003
  21
0.03908
  31
0
  0
LINE
  8
0
  10
0.29003
  20
0.03908
  30
0
  11
0.28676
  21
0.03779
  31
0
  0
LINE
  8
0
  10
0.28676
  20
0.03779
  30
0
  11
0.28554
  21
0.03673
  31
0
  0
LINE
  8
0
  10
0.28554
  20
0.03673
  30
0
  11
0.28467
  21
0.03571
  31
0
  0
LINE
  8
0
  10
0.28467
  20
0.03571
  30
0
  11
0.28399
  21
0.0347
  31
0
  0
LINE
  8
0
  10
0.28399
  20
0.0347
  30
0
  11
0.283
  21
0.03273
  31
0
  0
LINE
  8
0
  10
0.283
  20
0.03273
  30
0
  11
0.2823
  21
0.03079
  31
0
  0
LINE
  8
0
  10
0.2823
  20
0.03079
  30
0
  11
0.28151
  21
0.02696
  31
0
  0
LINE
  8
0
  10
0.28151
  20
0.02696
  30
0
  11
0.28127
  21
0.02316
  31
0
  0
LINE
  8
0
  10
0.28127
  20
0.02316
  30
0
  11
0.28143
  21
0.0194
  31
0
  0
LINE
  8
0
  10
0.28143
  20
0.0194
  30
0
  11
0.28041
  21
0.01555
  31
0
  0
LINE
  8
0
  10
0.28041
  20
0.01555
  30
0
  11
0.27918
  21
0.01171
  31
0
  0
LINE
  8
0
  10
0.27918
  20
0.01171
  30
0
  11
0.27778
  21
0.00786
  31
0
  0
LINE
  8
0
  10
0.27778
  20
0.00786
  30
0
  11
0.2762
  21
0.00401
  31
0
  0
LINE
  8
0
  10
0.2762
  20
0.00401
  30
0
  11
0.27445
  21
0.00017
  31
0
  0
LINE
  8
0
  10
0.27445
  20
0.00017
  30
0
  11
0.25538
  21
0.00017
  31
0
  0
LINE
  8
0
  10
0.25538
  20
0.00017
  30
0
  11
0.25363
  21
0.00401
  31
0
  0
LINE
  8
0
  10
0.25363
  20
0.00401
  30
0
  11
0.25205
  21
0.00786
  31
0
  0
LINE
  8
0
  10
0.25205
  20
0.00786
  30
0
  11
0.25065
  21
0.01171
  31
0
  0
LINE
  8
0
  10
0.25065
  20
0.01171
  30
0
  11
0.24942
  21
0.01555
  31
0
  0
LINE
  8
0
  10
0.24942
  20
0.01555
  30
0
  11
0.2484
  21
0.0194
  31
0
  0
LINE
  8
0
  10
0.2484
  20
0.0194
  30
0
  11
0.24856
  21
0.02316
  31
0
  0
LINE
  8
0
  10
0.24856
  20
0.02316
  30
0
  11
0.24832
  21
0.02696
  31
0
  0
LINE
  8
0
  10
0.24832
  20
0.02696
  30
0
  11
0.24753
  21
0.03079
  31
0
  0
LINE
  8
0
  10
0.24753
  20
0.03079
  30
0
  11
0.24683
  21
0.03273
  31
0
  0
LINE
  8
0
  10
0.24683
  20
0.03273
  30
0
  11
0.24583
  21
0.0347
  31
0
  0
LINE
  8
0
  10
0.24583
  20
0.0347
  30
0
  11
0.24516
  21
0.03571
  31
0
  0
LINE
  8
0
  10
0.24516
  20
0.03571
  30
0
  11
0.24429
  21
0.03673
  31
0
  0
LINE
  8
0
  10
0.24429
  20
0.03673
  30
0
  11
0.24307
  21
0.03779
  31
0
  0
LINE
  8
0
  10
0.24307
  20
0.03779
  30
0
  11
0.2398
  21
0.03908
  31
0
  0
LINE
  8
0
  10
0.2398
  20
0.03908
  30
0
  11
0.21901
  21
0.04237
  31
0
  0
LINE
  8
0
  10
0.21901
  20
0.04237
  30
0
  11
0.21551
  21
0.04215
  31
0
  0
LINE
  8
0
  10
0.21551
  20
0.04215
  30
0
  11
0.21402
  21
0.04152
  31
0
  0
LINE
  8
0
  10
0.21402
  20
0.04152
  30
0
  11
0.21287
  21
0.04082
  31
0
  0
LINE
  8
0
  10
0.21287
  20
0.04082
  30
0
  11
0.21192
  21
0.04008
  31
0
  0
LINE
  8
0
  10
0.21192
  20
0.04008
  30
0
  11
0.21036
  21
0.03851
  31
0
  0
LINE
  8
0
  10
0.21036
  20
0.03851
  30
0
  11
0.2091
  21
0.03688
  31
0
  0
LINE
  8
0
  10
0.2091
  20
0.03688
  30
0
  11
0.20717
  21
0.03347
  31
0
  0
LINE
  8
0
  10
0.20717
  20
0.03347
  30
0
  11
0.20577
  21
0.02994
  31
0
  0
LINE
  8
0
  10
0.20577
  20
0.02994
  30
0
  11
0.20476
  21
0.02631
  31
0
  0
LINE
  8
0
  10
0.20476
  20
0.02631
  30
0
  11
0.20259
  21
0.02297
  31
0
  0
LINE
  8
0
  10
0.20259
  20
0.02297
  30
0
  11
0.20024
  21
0.01969
  31
0
  0
LINE
  8
0
  10
0.20024
  20
0.01969
  30
0
  11
0.19771
  21
0.01647
  31
0
  0
LINE
  8
0
  10
0.19771
  20
0.01647
  30
0
  11
0.19502
  21
0.0133
  31
0
  0
LINE
  8
0
  10
0.19502
  20
0.0133
  30
0
  11
0.19217
  21
0.01018
  31
0
  0
LINE
  8
0
  10
0.19217
  20
0.01018
  30
0
  11
0.17404
  21
0.01608
  31
0
  0
LINE
  8
0
  10
0.17404
  20
0.01608
  30
0
  11
0.17356
  21
0.02027
  31
0
  0
LINE
  8
0
  10
0.17356
  20
0.02027
  30
0
  11
0.17325
  21
0.02441
  31
0
  0
LINE
  8
0
  10
0.17325
  20
0.02441
  30
0
  11
0.1731
  21
0.02851
  31
0
  0
LINE
  8
0
  10
0.1731
  20
0.02851
  30
0
  11
0.17312
  21
0.03255
  31
0
  0
LINE
  8
0
  10
0.17312
  20
0.03255
  30
0
  11
0.17333
  21
0.03652
  31
0
  0
LINE
  8
0
  10
0.17333
  20
0.03652
  30
0
  11
0.17465
  21
0.04005
  31
0
  0
LINE
  8
0
  10
0.17465
  20
0.04005
  30
0
  11
0.1756
  21
0.04373
  31
0
  0
LINE
  8
0
  10
0.1756
  20
0.04373
  30
0
  11
0.17603
  21
0.04762
  31
0
  0
LINE
  8
0
  10
0.17603
  20
0.04762
  30
0
  11
0.17597
  21
0.04968
  31
0
  0
LINE
  8
0
  10
0.17597
  20
0.04968
  30
0
  11
0.17563
  21
0.05187
  31
0
  0
LINE
  8
0
  10
0.17563
  20
0.05187
  30
0
  11
0.1753
  21
0.05303
  31
0
  0
LINE
  8
0
  10
0.1753
  20
0.05303
  30
0
  11
0.17479
  21
0.05427
  31
0
  0
LINE
  8
0
  10
0.17479
  20
0.05427
  30
0
  11
0.17395
  21
0.05566
  31
0
  0
LINE
  8
0
  10
0.17395
  20
0.05566
  30
0
  11
0.17124
  21
0.05789
  31
0
  0
LINE
  8
0
  10
0.17124
  20
0.05789
  30
0
  11
0.15249
  21
0.06745
  31
0
  0
LINE
  8
0
  10
0.15249
  20
0.06745
  30
0
  11
0.14909
  21
0.06832
  31
0
  0
LINE
  8
0
  10
0.14909
  20
0.06832
  30
0
  11
0.14748
  21
0.06819
  31
0
  0
LINE
  8
0
  10
0.14748
  20
0.06819
  30
0
  11
0.14617
  21
0.06787
  31
0
  0
LINE
  8
0
  10
0.14617
  20
0.06787
  30
0
  11
0.14504
  21
0.06746
  31
0
  0
LINE
  8
0
  10
0.14504
  20
0.06746
  30
0
  11
0.14307
  21
0.06645
  31
0
  0
LINE
  8
0
  10
0.14307
  20
0.06645
  30
0
  11
0.14137
  21
0.06528
  31
0
  0
LINE
  8
0
  10
0.14137
  20
0.06528
  30
0
  11
0.13847
  21
0.06265
  31
0
  0
LINE
  8
0
  10
0.13847
  20
0.06265
  30
0
  11
0.13605
  21
0.05972
  31
0
  0
LINE
  8
0
  10
0.13605
  20
0.05972
  30
0
  11
0.13397
  21
0.05658
  31
0
  0
LINE
  8
0
  10
0.13397
  20
0.05658
  30
0
  11
0.13088
  21
0.05407
  31
0
  0
LINE
  8
0
  10
0.13088
  20
0.05407
  30
0
  11
0.12763
  21
0.05168
  31
0
  0
LINE
  8
0
  10
0.12763
  20
0.05168
  30
0
  11
0.12423
  21
0.04939
  31
0
  0
LINE
  8
0
  10
0.12423
  20
0.04939
  30
0
  11
0.12069
  21
0.04721
  31
0
  0
LINE
  8
0
  10
0.12069
  20
0.04721
  30
0
  11
0.11702
  21
0.04513
  31
0
  0
LINE
  8
0
  10
0.11702
  20
0.04513
  30
0
  11
0.10159
  21
0.05634
  31
0
  0
LINE
  8
0
  10
0.10159
  20
0.05634
  30
0
  11
0.10243
  21
0.06047
  31
0
  0
LINE
  8
0
  10
0.10243
  20
0.06047
  30
0
  11
0.10342
  21
0.06451
  31
0
  0
LINE
  8
0
  10
0.10342
  20
0.06451
  30
0
  11
0.10454
  21
0.06845
  31
0
  0
LINE
  8
0
  10
0.10454
  20
0.06845
  30
0
  11
0.10581
  21
0.07228
  31
0
  0
LINE
  8
0
  10
0.10581
  20
0.07228
  30
0
  11
0.10724
  21
0.076
  31
0
  0
LINE
  8
0
  10
0.10724
  20
0.076
  30
0
  11
0.10958
  21
0.07895
  31
0
  0
LINE
  8
0
  10
0.10958
  20
0.07895
  30
0
  11
0.11162
  21
0.08216
  31
0
  0
LINE
  8
0
  10
0.11162
  20
0.08216
  30
0
  11
0.11323
  21
0.08573
  31
0
  0
LINE
  8
0
  10
0.11323
  20
0.08573
  30
0
  11
0.11381
  21
0.0877
  31
0
  0
LINE
  8
0
  10
0.11381
  20
0.0877
  30
0
  11
0.11416
  21
0.08989
  31
0
  0
LINE
  8
0
  10
0.11416
  20
0.08989
  30
0
  11
0.11421
  21
0.09109
  31
0
  0
LINE
  8
0
  10
0.11421
  20
0.09109
  30
0
  11
0.11411
  21
0.09243
  31
0
  0
LINE
  8
0
  10
0.11411
  20
0.09243
  30
0
  11
0.11374
  21
0.09401
  31
0
  0
LINE
  8
0
  10
0.11374
  20
0.09401
  30
0
  11
0.11185
  21
0.09697
  31
0
  0
LINE
  8
0
  10
0.11185
  20
0.09697
  30
0
  11
0.09697
  21
0.11185
  31
0
  0
LINE
  8
0
  10
0.09697
  20
0.11185
  30
0
  11
0.09401
  21
0.11374
  31
0
  0
LINE
  8
0
  10
0.09401
  20
0.11374
  30
0
  11
0.09243
  21
0.11411
  31
0
  0
LINE
  8
0
  10
0.09243
  20
0.11411
  30
0
  11
0.09109
  21
0.11421
  31
0
  0
LINE
  8
0
  10
0.09109
  20
0.11421
  30
0
  11
0.08989
  21
0.11416
  31
0
  0
LINE
  8
0
  10
0.08989
  20
0.11416
  30
0
  11
0.0877
  21
0.11381
  31
0
  0
LINE
  8
0
  10
0.0877
  20
0.11381
  30
0
  11
0.08573
  21
0.11323
  31
0
  0
LINE
  8
0
  10
0.08573
  20
0.11323
  30
0
  11
0.08216
  21
0.11162
  31
0
  0
LINE
  8
0
  10
0.08216
  20
0.11162
  30
0
  11
0.07895
  21
0.10958
  31
0
  0
LINE
  8
0
  10
0.07895
  20
0.10958
  30
0
  11
0.076
  21
0.10724
  31
0
  0
LINE
  8
0
  10
0.076
  20
0.10724
  30
0
  11
0.07228
  21
0.10581
  31
0
  0
LINE
  8
0
  10
0.07228
  20
0.10581
  30
0
  11
0.06845
  21
0.10454
  31
0
  0
LINE
  8
0
  10
0.06845
  20
0.10454
  30
0
  11
0.06451
  21
0.10342
  31
0
  0
LINE
  8
0
  10
0.06451
  20
0.10342
  30
0
  11
0.06047
  21
0.10243
  31
0
  0
LINE
  8
0
  10
0.06047
  20
0.10243
  30
0
  11
0.05634
  21
0.10159
  31
0
  0
LINE
  8
0
  10
0.05634
  20
0.10159
  30
0
  11
0.04513
  21
0.11702
  31
0
  0
LINE
  8
0
  10
0.04513
  20
0.11702
  30
0
  11
0.04721
  21
0.12069
  31
0
  0
LINE
  8
0
  10
0.04721
  20
0.12069
  30
0
  11
0.04939
  21
0.12423
  31
0
  0
LINE
  8
0
  10
0.04939
  20
0.12423
  30
0
  11
0.05168
  21
0.12763
  31
0
  0
LINE
  8
0
  10
0.05168
  20
0.12763
  30
0
  11
0.05407
  21
0.13088
  31
0
  0
LINE
  8
0
  10
0.05407
  20
0.13088
  30
0
  11
0.05658
  21
0.13397
  31
0
  0
LINE
  8
0
  10
0.05658
  20
0.13397
  30
0
  11
0.05972
  21
0.13605
  31
0
  0
LINE
  8
0
  10
0.05972
  20
0.13605
  30
0
  11
0.06265
  21
0.13847
  31
0
  0
LINE
  8
0
  10
0.06265
  20
0.13847
  30
0
  11
0.06528
  21
0.14137
  31
0
  0
LINE
  8
0
  10
0.06528
  20
0.14137
  30
0
  11
0.06645
  21
0.14307
  31
0
  0
LINE
  8
0
  10
0.06645
  20
0.14307
  30
0
  11
0.06746
  21
0.14504
  31
0
  0
LINE
  8
0
  10
0.06746
  20
0.14504
  30
0
  11
0.06787
  21
0.14617
  31
0
  0
LINE
  8
0
  10
0.06787
  20
0.14617
  30
0
  11
0.06819
  21
0.14748
  31
0
  0
LINE
  8
0
  10
0.06819
  20
0.14748
  30
0
  11
0.06832
  21
0.14909
  31
0
  0
LINE
  8
0
  10
0.06832
  20
0.14909
  30
0
  11
0.06745
  21
0.15249
  31
0
  0
LINE
  8
0
  10
0.06745
  20
0.15249
  30
0
  11
0.05789
  21
0.17124
  31
0
  0
LINE
  8
0
  10
0.05789
  20
0.17124
  30
0
  11
0.05566
  21
0.17395
  31
0
  0
LINE
  8
0
  10
0.05566
  20
0.17395
  30
0
  11
0.05427
  21
0.17479
  31
0
  0
LINE
  8
0
  10
0.05427
  20
0.17479
  30
0
  11
0.05303
  21
0.1753
  31
0
  0
LINE
  8
0
  10
0.05303
  20
0.1753
  30
0
  11
0.05187
  21
0.17563
  31
0
  0
LINE
  8
0
  10
0.05187
  20
0.17563
  30
0
  11
0.04968
  21
0.17597
  31
0
  0
LINE
  8
0
  10
0.04968
  20
0.17597
  30
0
  11
0.04762
  21
0.17603
  31
0
  0
LINE
  8
0
  10
0.04762
  20
0.17603
  30
0
  11
0.04373
  21
0.1756
  31
0
  0
LINE
  8
0
  10
0.04373
  20
0.1756
  30
0
  11
0.04005
  21
0.17465
  31
0
  0
LINE
  8
0
  10
0.04005
  20
0.17465
  30
0
  11
0.03652
  21
0.17333
  31
0
  0
LINE
  8
0
  10
0.03652
  20
0.17333
  30
0
  11
0.03255
  21
0.17312
  31
0
  0
LINE
  8
0
  10
0.03255
  20
0.17312
  30
0
  11
0.02851
  21
0.1731
  31
0
  0
LINE
  8
0
  10
0.02851
  20
0.1731
  30
0
  11
0.02441
  21
0.17325
  31
0
  0
LINE
  8
0
  10
0.02441
  20
0.17325
  30
0
  11
0.02027
  21
0.17356
  31
0
  0
LINE
  8
0
  10
0.02027
  20
0.17356
  30
0
  11
0.01608
  21
0.17404
  31
0
  0
LINE
  8
0
  10
0.01608
  20
0.17404
  30
0
  11
0.01018
  21
0.19217
  31
0
  0
LINE
  8
0
  10
0.01018
  20
0.19217
  30
0
  11
0.0133
  21
0.19502
  31
0
  0
LINE
  8
0
  10
0.0133
  20
0.19502
  30
0
  11
0.01647
  21
0.19771
  31
0
  0
LINE
  8
0
  10
0.01647
  20
0.19771
  30
0
  11
0.01969
  21
0.20024
  31
0
  0
LINE
  8
0
  10
0.01969
  20
0.20024
  30
0
  11
0.02297
  21
0.20259
  31
0
  0
LINE
  8
0
  10
0.02297
  20
0.20259
  30
0
  11
0.02631
  21
0.20476
  31
0
  0
LINE
  8
0
  10
0.02631
  20
0.20476
  30
0
  11
0.02994
  21
0.20577
  31
0
  0
LINE
  8
0
  10
0.02994
  20
0.20577
  30
0
  11
0.03347
  21
0.20717
  31
0
  0
LINE
  8
0
  10
0.03347
  20
0.20717
  30
0
  11
0.03688
  21
0.2091
  31
0
  0
LINE
  8
0
  10
0.03688
  20
0.2091
  30
0
  11
0.03851
  21
0.21036
  31
0
  0
LINE
  8
0
  10
0.03851
  20
0.21036
  30
0
  11
0.04008
  21
0.21192
  31
0
  0
LINE
  8
0
  10
0.04008
  20
0.21192
  30
0
  11
0.04082
  21
0.21287
  31
0
  0
LINE
  8
0
  10
0.04082
  20
0.21287
  30
0
  11
0.04152
  21
0.21402
  31
0
  0
LINE
  8
0
  10
0.04152
  20
0.21402
  30
0
  11
0.04215
  21
0.21551
  31
0
  0
LINE
  8
0
  10
0.04215
  20
0.21551
  30
0
  11
0.04237
  21
0.21901
  31
0
  0
LINE
  8
0
  10
0.04237
  20
0.21901
  30
0
  11
0.03908
  21
0.2398
  31
0
  0
LINE
  8
0
  10
0.03908
  20
0.2398
  30
0
  11
0.03779
  21
0.24307
  31
0
  0
LINE
  8
0
  10
0.03779
  20
0.24307
  30
0
  11
0.03673
  21
0.24429
  31
0
  0
LINE
  8
0
  10
0.03673
  20
0.24429
  30
0
  11
0.03571
  21
0.24516
  31
0
  0
LINE
  8
0
  10
0.03571
  20
0.24516
  30
0
  11
0.0347
  21
0.24583
  31
0
  0
LINE
  8
0
  10
0.0347
  20
0.24583
  30
0
  11
0.03273
  21
0.24683
  31
0
  0
LINE
  8
0
  10
0.03273
  20
0.24683
  30
0
  11
0.03079
  21
0.24753
  31
0
  0
LINE
  8
0
  10
0.03079
  20
0.24753
  30
0
  11
0.02696
  21
0.24832
  31
0
  0
LINE
  8
0
  10
0.02696
  20
0.24832
  30
0
  11
0.02316
  21
0.24856
  31
0
  0
LINE
  8
0
  10
0.02316
  20
0.24856
  30
0
  11
0.0194
  21
0.2484
  31
0
  0
LINE
  8
0
  10
0.0194
  20
0.2484
  30
0
  11
0.01555
  21
0.24942
  31
0
  0
LINE
  8
0
  10
0.01555
  20
0.24942
  30
0
  11
0.01171
  21
0.25065
  31
0
  0
LINE
  8
0
  10
0.01171
  20
0.25065
  30
0
  11
0.00786
  21
0.25205
  31
0
  0
LINE
  8
0
  10
0.00786
  20
0.25205
  30
0
  11
0.00401
  21
0.25363
  31
0
  0
LINE
  8
0
  10
0.00401
  20
0.25363
  30
0
  11
0.00017
  21
0.25538
  31
0
  0
LINE
  8
0
  10
0.00017
  20
0.25538
  30
0
  11
0.00017
  21
0.27445
  31
0
  0
LINE
  8
0
  10
0.00017
  20
0.27445
  30
0
  11
0.00401
  21
0.2762
  31
0
  0
LINE
  8
0
  10
0.00401
  20
0.2762
  30
0
  11
0.00786
  21
0.27778
  31
0
  0
LINE
  8
0
  10
0.00786
  20
0.27778
  30
0
  11
0.01171
  21
0.27918
  31
0
  0
LINE
  8
0
  10
0.01171
  20
0.27918
  30
0
  11
0.01555
  21
0.28041
  31
0
  0
LINE
  8
0
  10
0.01555
  20
0.28041
  30
0
  11
0.0194
  21
0.28143
  31
0
  0
LINE
  8
0
  10
0.0194
  20
0.28143
  30
0
  11
0.02316
  21
0.28127
  31
0
  0
LINE
  8
0
  10
0.02316
  20
0.28127
  30
0
  11
0.02696
  21
0.28151
  31
0
  0
LINE
  8
0
  10
0.02696
  20
0.28151
  30
0
  11
0.03079
  21
0.2823
  31
0
  0
LINE
  8
0
  10
0.03079
  20
0.2823
  30
0
  11
0.03273
  21
0.283
  31
0
  0
LINE
  8
0
  10
0.03273
  20
0.283
  30
0
  11
0.0347
  21
0.28399
  31
0
  0
LINE
  8
0
  10
0.0347
  20
0.28399
  30
0
  11
0.03571
  21
0.28467
  31
0
  0
LINE
  8
0
  10
0.03571
  20
0.28467
  30
0
  11
0.03673
  21
0.28554
  31
0
  0
LINE
  8
0
  10
0.03673
  20
0.28554
  30
0
  11
0.03779
  21
0.28676
  31
0
  0
LINE
  8
0
  10
0.03779
  20
0.28676
  30
0
  11
0.03908
  21
0.29003
  31
0
  0
LINE
  8
0
  10
0.03908
  20
0.29003
  30
0
  11
0.04237
  21
0.31082
  31
0
  0
LINE
  8
0
  10
0.04237
  20
0.31082
  30
0
  11
0.04215
  21
0.31432
  31
0
  0
LINE
  8
0
  10
0.04215
  20
0.31432
  30
0
  11
0.04152
  21
0.31581
  31
0
  0
LINE
  8
0
  10
0.04152
  20
0.31581
  30
0
  11
0.04082
  21
0.31696
  31
0
  0
LINE
  8
0
  10
0.04082
  20
0.31696
  30
0
  11
0.04008
  21
0.31791
  31
0
  0
LINE
  8
0
  10
0.04008
  20
0.31791
  30
0
  11
0.03851
  21
0.31947
  31
0
  0
LINE
  8
0
  10
0.03851
  20
0.31947
  30
0
  11
0.03688
  21
0.32072
  31
0
  0
LINE
  8
0
  10
0.03688
  20
0.32072
  30
0
  11
0.03347
  21
0.32266
  31
0
  0
LINE
  8
0
  10
0.03347
  20
0.32266
  30
0
  11
0.02994
  21
0.32406
  31
0
  0
LINE
  8
0
  10
0.02994
  20
0.32406
  30
0
  11
0.02631
  21
0.32507
  31
0
  0
LINE
  8
0
  10
0.02631
  20
0.32507
  30
0
  11
0.02297
  21
0.32724
  31
0
  0
LINE
  8
0
  10
0.02297
  20
0.32724
  30
0
  11
0.01969
  21
0.32959
  31
0
  0
LINE
  8
0
  10
0.01969
  20
0.32959
  30
0
  11
0.01647
  21
0.33212
  31
0
  0
LINE
  8
0
  10
0.01647
  20
0.33212
  30
0
  11
0.0133
  21
0.33481
  31
0
  0
LINE
  8
0
  10
0.0133
  20
0.33481
  30
0
  11
0.01018
  21
0.33766
  31
0
  0
LINE
  8
0
  10
0.01018
  20
0.33766
  30
0
  11
0.01608
  21
0.35579
  31
0
  0
LINE
  8
0
  10
0.01608
  20
0.35579
  30
0
  11
0.02027
  21
0.35627
  31
0
  0
LINE
  8
0
  10
0.02027
  20
0.35627
  30
0
  11
0.02441
  21
0.35658
  31
0
  0
LINE
  8
0
  10
0.02441
  20
0.35658
  30
0
  11
0.02851
  21
0.35673
  31
0
  0
LINE
  8
0
  10
0.02851
  20
0.35673
  30
0
  11
0.03255
  21
0.35671
  31
0
  0
LINE
  8
0
  10
0.03255
  20
0.35671
  30
0
  11
0.03652
  21
0.35649
  31
0
  0
LINE
  8
0
  10
0.03652
  20
0.35649
  30
0
  11
0.04005
  21
0.35518
  31
0
  0
LINE
  8
0
  10
0.04005
  20
0.35518
  30
0
  11
0.04373
  21
0.35423
  31
0
  0
LINE
  8
0
  10
0.04373
  20
0.35423
  30
0
  11
0.04762
  21
0.3538
  31
0
  0
LINE
  8
0
  10
0.04762
  20
0.3538
  30
0
  11
0.04968
  21
0.35386
  31
0
  0
LINE
  8
0
  10
0.04968
  20
0.35386
  30
0
  11
0.05187
  21
0.3542
  31
0
  0
LINE
  8
0
  10
0.05187
  20
0.3542
  30
0
  11
0.05303
  21
0.35453
  31
0
  0
LINE
  8
0
  10
0.05303
  20
0.35453
  30
0
  11
0.05427
  21
0.35504
  31
0
  0
LINE
  8
0
  10
0.05427
  20
0.35504
  30
0
  11
0.05566
  21
0.35588
  31
0
  0
LINE
  8
0
  10
0.05566
  20
0.35588
  30
0
  11
0.05789
  21
0.35859
  31
0
  0
LINE
  8
0
  10
0.05789
  20
0.35859
  30
0
  11
0.06745
  21
0.37734
  31
0
  0
LINE
  8
0
  10
0.06745
  20
0.37734
  30
0
  11
0.06832
  21
0.38074
  31
0
  0
LINE
  8
0
  10
0.06832
  20
0.38074
  30
0
  11
0.06819
  21
0.38235
  31
0
  0
LINE
  8
0
  10
0.06819
  20
0.38235
  30
0
  11
0.06787
  21
0.38366
  31
0
  0
LINE
  8
0
  10
0.06787
  20
0.38366
  30
0
  11
0.06746
  21
0.38479
  31
0
  0
LINE
  8
0
  10
0.06746
  20
0.38479
  30
0
  11
0.06645
  21
0.38676
  31
0
  0
LINE
  8
0
  10
0.06645
  20
0.38676
  30
0
  11
0.06528
  21
0.38846
  31
0
  0
LINE
  8
0
  10
0.06528
  20
0.38846
  30
0
  11
0.06265
  21
0.39136
  31
0
  0
LINE
  8
0
  10
0.06265
  20
0.39136
  30
0
  11
0.05972
  21
0.39378
  31
0
  0
LINE
  8
0
  10
0.05972
  20
0.39378
  30
0
  11
0.05658
  21
0.39586
  31
0
  0
LINE
  8
0
  10
0.05658
  20
0.39586
  30
0
  11
0.05407
  21
0.39895
  31
0
  0
LINE
  8
0
  10
0.05407
  20
0.39895
  30
0
  11
0.05168
  21
0.4022
  31
0
  0
LINE
  8
0
  10
0.05168
  20
0.4022
  30
0
  11
0.04939
  21
0.4056
  31
0
  0
LINE
  8
0
  10
0.04939
  20
0.4056
  30
0
  11
0.04721
  21
0.40914
  31
0
  0
LINE
  8
0
  10
0.04721
  20
0.40914
  30
0
  11
0.04513
  21
0.41281
  31
0
  0
LINE
  8
0
  10
0.04513
  20
0.41281
  30
0
  11
0.05634
  21
0.42824
  31
0
  0
LINE
  8
0
  10
0.05634
  20
0.42824
  30
0
  11
0.06047
  21
0.4274
  31
0
  0
LINE
  8
0
  10
0.06047
  20
0.4274
  30
0
  11
0.06451
  21
0.42641
  31
0
  0
LINE
  8
0
  10
0.06451
  20
0.42641
  30
0
  11
0.06845
  21
0.42529
  31
0
  0
LINE
  8
0
  10
0.06845
  20
0.42529
  30
0
  11
0.07228
  21
0.42402
  31
0
  0
LINE
  8
0
  10
0.07228
  20
0.42402
  30
0
  11
0.076
  21
0.42259
  31
0
  0
LINE
  8
0
  10
0.076
  20
0.42259
  30
0
  11
0.07895
  21
0.42025
  31
0
  0
LINE
  8
0
  10
0.07895
  20
0.42025
  30
0
  11
0.08216
  21
0.41821
  31
0
  0
LINE
  8
0
  10
0.08216
  20
0.41821
  30
0
  11
0.08573
  21
0.4166
  31
0
  0
LINE
  8
0
  10
0.08573
  20
0.4166
  30
0
  11
0.0877
  21
0.41601
  31
0
  0
LINE
  8
0
  10
0.0877
  20
0.41601
  30
0
  11
0.08989
  21
0.41566
  31
0
  0
LINE
  8
0
  10
0.08989
  20
0.41566
  30
0
  11
0.09109
  21
0.41562
  31
0
  0
LINE
  8
0
  10
0.09109
  20
0.41562
  30
0
  11
0.09243
  21
0.41572
  31
0
  0
LINE
  8
0
  10
0.09243
  20
0.41572
  30
0
  11
0.09401
  21
0.41609
  31
0
  0
LINE
  8
0
  10
0.09401
  20
0.41609
  30
0
  11
0.09697
  21
0.41798
  31
0
  0
LINE
  8
0
  10
0.09697
  20
0.41798
  30
0
  11
0.11185
  21
0.43286
  31
0
  0
LINE
  8
0
  10
0.11185
  20
0.43286
  30
0
  11
0.11374
  21
0.43582
  31
0
  0
LINE
  8
0
  10
0.11374
  20
0.43582
  30
0
  11
0.11411
  21
0.4374
  31
0
  0
LINE
  8
0
  10
0.11411
  20
0.4374
  30
0
  11
0.11421
  21
0.43874
  31
0
  0
LINE
  8
0
  10
0.11421
  20
0.43874
  30
0
  11
0.11416
  21
0.43994
  31
0
  0
LINE
  8
0
  10
0.11416
  20
0.43994
  30
0
  11
0.11381
  21
0.44213
  31
0
  0
LINE
  8
0
  10
0.11381
  20
0.44213
  30
0
  11
0.11323
  21
0.4441
  31
0
  0
LINE
  8
0
  10
0.11323
  20
0.4441
  30
0
  11
0.11162
  21
0.44767
  31
0
  0
LINE
  8
0
  10
0.11162
  20
0.44767
  30
0
  11
0.10958
  21
0.45088
  31
0
  0
LINE
  8
0
  10
0.10958
  20
0.45088
  30
0
  11
0.10724
  21
0.45383
  31
0
  0
LINE
  8
0
  10
0.10724
  20
0.45383
  30
0
  11
0.10581
  21
0.45754
  31
0
  0
LINE
  8
0
  10
0.10581
  20
0.45754
  30
0
  11
0.10454
  21
0.46138
  31
0
  0
LINE
  8
0
  10
0.10454
  20
0.46138
  30
0
  11
0.10342
  21
0.46532
  31
0
  0
LINE
  8
0
  10
0.10342
  20
0.46532
  30
0
  11
0.10243
  21
0.46936
  31
0
  0
LINE
  8
0
  10
0.10243
  20
0.46936
  30
0
  11
0.10159
  21
0.47349
  31
0
  0
LINE
  8
0
  10
0.10159
  20
0.47349
  30
0
  11
0.11702
  21
0.4847
  31
0
  0
LINE
  8
0
  10
0.11702
  20
0.4847
  30
0
  11
0.12069
  21
0.48262
  31
0
  0
LINE
  8
0
  10
0.12069
  20
0.48262
  30
0
  11
0.12423
  21
0.48044
  31
0
  0
LINE
  8
0
  10
0.12423
  20
0.48044
  30
0
  11
0.12763
  21
0.47815
  31
0
  0
LINE
  8
0
  10
0.12763
  20
0.47815
  30
0
  11
0.13088
  21
0.47576
  31
0
  0
LINE
  8
0
  10
0.13088
  20
0.47576
  30
0
  11
0.13397
  21
0.47325
  31
0
  0
LINE
  8
0
  10
0.13397
  20
0.47325
  30
0
  11
0.13605
  21
0.47011
  31
0
  0
LINE
  8
0
  10
0.13605
  20
0.47011
  30
0
  11
0.13847
  21
0.46718
  31
0
  0
LINE
  8
0
  10
0.13847
  20
0.46718
  30
0
  11
0.14137
  21
0.46455
  31
0
  0
LINE
  8
0
  10
0.14137
  20
0.46455
  30
0
  11
0.14307
  21
0.46338
  31
0
  0
LINE
  8
0
  10
0.14307
  20
0.46338
  30
0
  11
0.14504
  21
0.46237
  31
0
  0
LINE
  8
0
  10
0.14504
  20
0.46237
  30
0
  11
0.14617
  21
0.46196
  31
0
  0
LINE
  8
0
  10
0.14617
  20
0.46196
  30
0
  11
0.14748
  21
0.46164
  31
0
  0
LINE
  8
0
  10
0.14748
  20
0.46164
  30
0
  11
0.14909
  21
0.4615
  31
0
  0
LINE
  8
0
  10
0.14909
  20
0.4615
  30
0
  11
0.15249
  21
0.46238
  31
0
  0
LINE
  8
0
  10
0.15249
  20
0.46238
  30
0
  11
0.17124
  21
0.47194
  31
0
  0
LINE
  8
0
  10
0.17124
  20
0.47194
  30
0
  11
0.17395
  21
0.47417
  31
0
  0
LINE
  8
0
  10
0.17395
  20
0.47417
  30
0
  11
0.17479
  21
0.47556
  31
0
  0
LINE
  8
0
  10
0.17479
  20
0.47556
  30
0
  11
0.1753
  21
0.4768
  31
0
  0
LINE
  8
0
  10
0.1753
  20
0.4768
  30
0
  11
0.17563
  21
0.47796
  31
0
  0
LINE
  8
0
  10
0.17563
  20
0.47796
  30
0
  11
0.17597
  21
0.48014
  31
0
  0
LINE
  8
0
  10
0.17597
  20
0.48014
  30
0
  11
0.17603
  21
0.48221
  31
0
  0
LINE
  8
0
  10
0.17603
  20
0.48221
  30
0
  11
0.1756
  21
0.4861
  31
0
  0
LINE
  8
0
  10
0.1756
  20
0.4861
  30
0
  11
0.17465
  21
0.48978
  31
0
  0
LINE
  8
0
  10
0.17465
  20
0.48978
  30
0
  11
0.17333
  21
0.49331
  31
0
  0
LINE
  8
0
  10
0.17333
  20
0.49331
  30
0
  11
0.17312
  21
0.49728
  31
0
  0
LINE
  8
0
  10
0.17312
  20
0.49728
  30
0
  11
0.1731
  21
0.50132
  31
0
  0
LINE
  8
0
  10
0.1731
  20
0.50132
  30
0
  11
0.17325
  21
0.50542
  31
0
  0
LINE
  8
0
  10
0.17325
  20
0.50542
  30
0
  11
0.17356
  21
0.50956
  31
0
  0
LINE
  8
0
  10
0.17356
  20
0.50956
  30
0
  11
0.17404
  21
0.51375
  31
0
  0
LINE
  8
0
  10
0.17404
  20
0.51375
  30
0
  11
0.19217
  21
0.51965
  31
0
  0
LINE
  8
0
  10
0.19217
  20
0.51965
  30
0
  11
0.19502
  21
0.51653
  31
0
  0
LINE
  8
0
  10
0.19502
  20
0.51653
  30
0
  11
0.19771
  21
0.51336
  31
0
  0
LINE
  8
0
  10
0.19771
  20
0.51336
  30
0
  11
0.20024
  21
0.51014
  31
0
  0
LINE
  8
0
  10
0.20024
  20
0.51014
  30
0
  11
0.20259
  21
0.50686
  31
0
  0
LINE
  8
0
  10
0.20259
  20
0.50686
  30
0
  11
0.20476
  21
0.50352
  31
0
  0
LINE
  8
0
  10
0.20476
  20
0.50352
  30
0
  11
0.20577
  21
0.49989
  31
0
  0
LINE
  8
0
  10
0.20577
  20
0.49989
  30
0
  11
0.20717
  21
0.49636
  31
0
  0
LINE
  8
0
  10
0.20717
  20
0.49636
  30
0
  11
0.2091
  21
0.49295
  31
0
  0
LINE
  8
0
  10
0.2091
  20
0.49295
  30
0
  11
0.21036
  21
0.49132
  31
0
  0
LINE
  8
0
  10
0.21036
  20
0.49132
  30
0
  11
0.21192
  21
0.48975
  31
0
  0
LINE
  8
0
  10
0.21192
  20
0.48975
  30
0
  11
0.21287
  21
0.48901
  31
0
  0
LINE
  8
0
  10
0.21287
  20
0.48901
  30
0
  11
0.21402
  21
0.48831
  31
0
  0
LINE
  8
0
  10
0.21402
  20
0.48831
  30
0
  11
0.21551
  21
0.48767
  31
0
  0
LINE
  8
0
  10
0.21551
  20
0.48767
  30
0
  11
0.21901
  21
0.48746
  31
0
  0
LINE
  8
0
  10
0.21901
  20
0.48746
  30
0
  11
0.2398
  21
0.49075
  31
0
  0
LINE
  8
0
  10
0.2398
  20
0.49075
  30
0
  11
0.24307
  21
0.49204
  31
0
  0
LINE
  8
0
  10
0.24307
  20
0.49204
  30
0
  11
0.24429
  21
0.4931
  31
0
  0
LINE
  8
0
  10
0.24429
  20
0.4931
  30
0
  11
0.24516
  21
0.49412
  31
0
  0
LINE
  8
0
  10
0.24516
  20
0.49412
  30
0
  11
0.24583
  21
0.49513
  31
0
  0
LINE
  8
0
  10
0.24583
  20
0.49513
  30
0
  11
0.24683
  21
0.4971
  31
0
  0
LINE
  8
0
  10
0.24683
  20
0.4971
  30
0
  11
0.24753
  21
0.49904
  31
0
  0
LINE
  8
0
  10
0.24753
  20
0.49904
  30
0
  11
0.24832
  21
0.50287
  31
0
  0
LINE
  8
0
  10
0.24832
  20
0.50287
  30
0
  11
0.24856
  21
0.50667
  31
0
  0
LINE
  8
0
  10
0.24856
  20
0.50667
  30
0
  11
0.2484
  21
0.51043
  31
0
  0
LINE
  8
0
  10
0.2484
  20
0.51043
  30
0
  11
0.24942
  21
0.51428
  31
0
  0
LINE
  8
0
  10
0.24942
  20
0.51428
  30
0
  11
0.25065
  21
0.51812
  31
0
  0
LINE
  8
0
  10
0.25065
  20
0.51812
  30
0
  11
0.25205
  21
0.52197
  31
0
  0
LINE
  8
0
  10
0.25205
  20
0.52197
  30
0
  11
0.25363
  21
0.52582
  31
0
  0
LINE
  8
0
  10
0.25363
  20
0.52582
  30
0
  11
0.25538
  21
0.52966
  31
0
  0
LINE
  8
0
  10
0.25538
  20
0.52966
  30
0
  11
0.27445
  21
0.52966
  31
0
  0
LINE
  8
0
  10
0.27445
  20
0.52966
  30
0
  11
0.2762
  21
0.52582
  31
0
  0
LINE
  8
0
  10
0.2762
  20
0.52582
  30
0
  11
0.27778
  21
0.52197
  31
0
  0
LINE
  8
0
  10
0.27778
  20
0.52197
  30
0
  11
0.27918
  21
0.51812
  31
0
  0
LINE
  8
0
  10
0.27918
  20
0.51812
  30
0
  11
0.28041
  21
0.51428
  31
0
  0
LINE
  8
0
  10
0.28041
  20
0.51428
  30
0
  11
0.28143
  21
0.51043
  31
0
  0
LINE
  8
0
  10
0.28143
  20
0.51043
  30
0
  11
0.28127
  21
0.50667
  31
0
  0
LINE
  8
0
  10
0.28127
  20
0.50667
  30
0
  11
0.28151
  21
0.50287
  31
0
  0
LINE
  8
0
  10
0.28151
  20
0.50287
  30
0
  11
0.2823
  21
0.49904
  31
0
  0
LINE
  8
0
  10
0.2823
  20
0.49904
  30
0
  11
0.283
  21
0.4971
  31
0
  0
LINE
  8
0
  10
0.283
  20
0.4971
  30
0
  11
0.28399
  21
0.49513
  31
0
  0
LINE
  8
0
  10
0.28399
  20
0.49513
  30
0
  11
0.28467
  21
0.49412
  31
0
  0
LINE
  8
0
  10
0.28467
  20
0.49412
  30
0
  11
0.28554
  21
0.4931
  31
0
  0
LINE
  8
0
  10
0.28554
  20
0.4931
  30
0
  11
0.28676
  21
0.49204
  31
0
  0
LINE
  8
0
  10
0.28676
  20
0.49204
  30
0
  11
0.29003
  21
0.49075
  31
0
  0
LINE
  8
0
  10
0.29003
  20
0.49075
  30
0
  11
0.31082
  21
0.48746
  31
0
  0
LINE
  8
0
  10
0.31082
  20
0.48746
  30
0
  11
0.31432
  21
0.48767
  31
0
  0
LINE
  8
0
  10
0.31432
  20
0.48767
  30
0
  11
0.31581
  21
0.48831
  31
0
  0
LINE
  8
0
  10
0.31581
  20
0.48831
  30
0
  11
0.31696
  21
0.48901
  31
0
  0
LINE
  8
0
  10
0.31696
  20
0.48901
  30
0
  11
0.31791
  21
0.48975
  31
0
  0
LINE
  8
0
  10
0.31791
  20
0.48975
  30
0
  11
0.31947
  21
0.49132
  31
0
  0
LINE
  8
0
  10
0.31947
  20
0.49132
  30
0
  11
0.32072
  21
0.49295
  31
0
  0
LINE
  8
0
  10
0.32072
  20
0.49295
  30
0
  11
0.32266
  21
0.49636
  31
0
  0
LINE
  8
0
  10
0.32266
  20
0.49636
  30
0
  11
0.32406
  21
0.49989
  31
0
  0
LINE
  8
0
  10
0.32406
  20
0.49989
  30
0
  11
0.32507
  21
0.50352
  31
0
  0
LINE
  8
0
  10
0.32507
  20
0.50352
  30
0
  11
0.32724
  21
0.50686
  31
0
  0
LINE
  8
0
  10
0.32724
  20
0.50686
  30
0
  11
0.32959
  21
0.51014
  31
0
  0
LINE
  8
0
  10
0.32959
  20
0.51014
  30
0
  11
0.33212
  21
0.51336
  31
0
  0
LINE
  8
0
  10
0.33212
  20
0.51336
  30
0
  11
0.33481
  21
0.51653
  31
0
  0
LINE
  8
0
  10
0.33481
  20
0.51653
  30
0
  11
0.33766
  21
0.51965
  31
0
  0
LINE
  8
0
  10
0.33766
  20
0.51965
  30
0
  11
0.35579
  21
0.51375
  31
0
  0
LINE
  8
0
  10
0.35579
  20
0.51375
  30
0
  11
0.35627
  21
0.50956
  31
0
  0
LINE
  8
0
  10
0.35627
  20
0.50956
  30
0
  11
0.35658
  21
0.50542
  31
0
  0
LINE
  8
0
  10
0.35658
  20
0.50542
  30
0
  11
0.35673
  21
0.50132
  31
0
  0
LINE
  8
0
  10
0.35673
  20
0.50132
  30
0
  11
0.35671
  21
0.49728
  31
0
  0
LINE
  8
0
  10
0.35671
  20
0.49728
  30
0
  11
0.35649
  21
0.49331
  31
0
  0
LINE
  8
0
  10
0.35649
  20
0.49331
  30
0
  11
0.35518
  21
0.48978
  31
0
  0
LINE
  8
0
  10
0.35518
  20
0.48978
  30
0
  11
0.35423
  21
0.4861
  31
0
  0
LINE
  8
0
  10
0.35423
  20
0.4861
  30
0
  11
0.3538
  21
0.48221
  31
0
  0
LINE
  8
0
  10
0.3538
  20
0.48221
  30
0
  11
0.35386
  21
0.48014
  31
0
  0
LINE
  8
0
  10
0.35386
  20
0.48014
  30
0
  11
0.3542
  21
0.47796
  31
0
  0
LINE
  8
0
  10
0.3542
  20
0.47796
  30
0
  11
0.35453
  21
0.4768
  31
0
  0
LINE
  8
0
  10
0.35453
  20
0.4768
  30
0
  11
0.35504
  21
0.47556
  31
0
  0
LINE
  8
0
  10
0.35504
  20
0.47556
  30
0
  11
0.35588
  21
0.47417
  31
0
  0
LINE
  8
0
  10
0.35588
  20
0.47417
  30
0
  11
0.35859
  21
0.47194
  31
0
  0
LINE
  8
0
  10
0.35859
  20
0.47194
  30
0
  11
0.37734
  21
0.46238
  31
0
  0
LINE
  8
0
  10
0.37734
  20
0.46238
  30
0
  11
0.38074
  21
0.4615
  31
0
  0
LINE
  8
0
  10
0.38074
  20
0.4615
  30
0
  11
0.38235
  21
0.46164
  31
0
  0
LINE
  8
0
  10
0.38235
  20
0.46164
  30
0
  11
0.38366
  21
0.46196
  31
0
  0
LINE
  8
0
  10
0.38366
  20
0.46196
  30
0
  11
0.38479
  21
0.46237
  31
0
  0
LINE
  8
0
  10
0.38479
  20
0.46237
  30
0
  11
0.38676
  21
0.46338
  31
0
  0
LINE
  8
0
  10
0.38676
  20
0.46338
  30
0
  11
0.38846
  21
0.46455
  31
0
  0
LINE
  8
0
  10
0.38846
  20
0.46455
  30
0
  11
0.39136
  21
0.46718
  31
0
  0
LINE
  8
0
  10
0.39136
  20
0.46718
  30
0
  11
0.39378
  21
0.47011
  31
0
  0
LINE
  8
0
  10
0.39378
  20
0.47011
  30
0
  11
0.39586
  21
0.47325
  31
0
  0
LINE
  8
0
  10
0.39586
  20
0.47325
  30
0
  11
0.39895
  21
0.47576
  31
0
  0
LINE
  8
0
  10
0.39895
  20
0.47576
  30
0
  11
0.4022
  21
0.47815
  31
0
  0
LINE
  8
0
  10
0.4022
  20
0.47815
  30
0
  11
0.4056
  21
0.48044
  31
0
  0
LINE
  8
0
  10
0.4056
  20
0.48044
  30
0
  11
0.40914
  21
0.48262
  31
0
  0
LINE
  8
0
  10
0.40914
  20
0.48262
  30
0
  11
0.41281
  21
0.4847
  31
0
  0
LINE
  8
0
  10
0.41281
  20
0.4847
  30
0
  11
0.42824
  21
0.47349
  31
0
  0
LINE
  8
0
  10
0.42824
  20
0.47349
  30
0
  11
0.4274
  21
0.46936
  31
0
  0
LINE
  8
0
  10
0.4274
  20
0.46936
  30
0
  11
0.42641
  21
0.46532
  31
0
  0
LINE
  8
0
  10
0.42641
  20
0.46532
  30
0
  11
0.42529
  21
0.46138
  31
0
  0
LINE
  8
0
  10
0.42529
  20
0.46138
  30
0
  11
0.42402
  21
0.45754
  31
0
  0
LINE
  8
0
  10
0.42402
  20
0.45754
  30
0
  11
0.42259
  21
0.45383
  31
0
  0
LINE
  8
0
  10
0.42259
  20
0.45383
  30
0
  11
0.42025
  21
0.45088
  31
0
  0
LINE
  8
0
  10
0.42025
  20
0.45088
  30
0
  11
0.41821
  21
0.44767
  31
0
  0
LINE
  8
0
  10
0.41821
  20
0.44767
  30
0
  11
0.4166
  21
0.4441
  31
0
  0
LINE
  8
0
  10
0.4166
  20
0.4441
  30
0
  11
0.41601
  21
0.44213
  31
0
  0
LINE
  8
0
  10
0.41601
  20
0.44213
  30
0
  11
0.41566
  21
0.43994
  31
0
  0
LINE
  8
0
  10
0.41566
  20
0.43994
  30
0
  11
0.41562
  21
0.43874
  31
0
  0
LINE
  8
0
  10
0.41562
  20
0.43874
  30
0
  11
0.41572
  21
0.4374
  31
0
  0
LINE
  8
0
  10
0.41572
  20
0.4374
  30
0
  11
0.41609
  21
0.43582
  31
0
  0
LINE
  8
0
  10
0.41609
  20
0.43582
  30
0
  11
0.41798
  21
0.43286
  31
0
  0
LINE
  8
0
  10
0.41798
  20
0.43286
  30
0
  11
0.43286
  21
0.41798
  31
0
  0
LINE
  8
0
  10
0.43286
  20
0.41798
  30
0
  11
0.43582
  21
0.41609
  31
0
  0
LINE
  8
0
  10
0.43582
  20
0.41609
  30
0
  11
0.4374
  21
0.41572
  31
0
  0
LINE
  8
0
  10
0.4374
  20
0.41572
  30
0
  11
0.43874
  21
0.41562
  31
0
  0
LINE
  8
0
  10
0.43874
  20
0.41562
  30
0
  11
0.43994
  21
0.41566
  31
0
  0
LINE
  8
0
  10
0.43994
  20
0.41566
  30
0
  11
0.44213
  21
0.41601
  31
0
  0
LINE
  8
0
  10
0.44213
  20
0.41601
  30
0
  11
0.4441
  21
0.4166
  31
0
  0
LINE
  8
0
  10
0.4441
  20
0.4166
  30
0
  11
0.44767
  21
0.41821
  31
0
  0
LINE
  8
0
  10
0.44767
  20
0.41821
  30
0
  11
0.45088
  21
0.42025
  31
0
  0
LINE
  8
0
  10
0.45088
  20
0.42025
  30
0
  11
0.45383
  21
0.42259
  31
0
  0
LINE
  8
0
  10
0.45383
  20
0.42259
  30
0
  11
0.45754
  21
0.42402
  31
0
  0
LINE
  8
0
  10
0.45754
  20
0.42402
  30
0
  11
0.46138
  21
0.42529
  31
0
  0
LINE
  8
0
  10
0.46138
  20
0.42529
  30
0
  11
0.46532
  21
0.42641
  31
0
  0
LINE
  8
0
  10
0.46532
  20
0.42641
  30
0
  11
0.46936
  21
0.4274
  31
0
  0
LINE
  8
0
  10
0.46936
  20
0.4274
  30
0
  11
0.47349
  21
0.42824
  31
0
  0
LINE
  8
0
  10
0.47349
  20
0.42824
  30
0
  11
0.4847
  21
0.41281
  31
0
  0
LINE
  8
0
  10
0.4847
  20
0.41281
  30
0
  11
0.48262
  21
0.40914
  31
0
  0
LINE
  8
0
  10
0.48262
  20
0.40914
  30
0
  11
0.48044
  21
0.4056
  31
0
  0
LINE
  8
0
  10
0.48044
  20
0.4056
  30
0
  11
0.47815
  21
0.4022
  31
0
  0
LINE
  8
0
  10
0.47815
  20
0.4022
  30
0
  11
0.47576
  21
0.39895
  31
0
  0
LINE
  8
0
  10
0.47576
  20
0.39895
  30
0
  11
0.47325
  21
0.39586
  31
0
  0
LINE
  8
0
  10
0.47325
  20
0.39586
  30
0
  11
0.47011
  21
0.39378
  31
0
  0
LINE
  8
0
  10
0.47011
  20
0.39378
  30
0
  11
0.46718
  21
0.39136
  31
0
  0
LINE
  8
0
  10
0.46718
  20
0.39136
  30
0
  11
0.46455
  21
0.38846
  31
0
  0
LINE
  8
0
  10
0.46455
  20
0.38846
  30
0
  11
0.46338
  21
0.38676
  31
0
  0
LINE
  8
0
  10
0.46338
  20
0.38676
  30
0
  11
0.46237
  21
0.38479
  31
0
  0
LINE
  8
0
  10
0.46237
  20
0.38479
  30
0
  11
0.46196
  21
0.38366
  31
0
  0
LINE
  8
0
  10
0.46196
  20
0.38366
  30
0
  11
0.46164
  21
0.38235
  31
0
  0
LINE
  8
0
  10
0.46164
  20
0.38235
  30
0
  11
0.4615
  21
0.38074
  31
0
  0
LINE
  8
0
  10
0.4615
  20
0.38074
  30
0
  11
0.46238
  21
0.37734
  31
0
  0
LINE
  8
0
  10
0.46238
  20
0.37734
  30
0
  11
0.47194
  21
0.35859
  31
0
  0
LINE
  8
0
  10
0.47194
  20
0.35859
  30
0
  11
0.47417
  21
0.35588
  31
0
  0
LINE
  8
0
  10
0.47417
  20
0.35588
  30
0
  11
0.47556
  21
0.35504
  31
0
  0
LINE
  8
0
  10
0.47556
  20
0.35504
  30
0
  11
0.4768
  21
0.35453
  31
0
  0
LINE
  8
0
  10
0.4768
  20
0.35453
  30
0
  11
0.47796
  21
0.3542
  31
0
  0
LINE
  8
0
  10
0.47796
  20
0.3542
  30
0
  11
0.48014
  21
0.35386
  31
0
  0
LINE
  8
0
  10
0.48014
  20
0.35386
  30
0
  11
0.48221
  21
0.3538
  31
0
  0
LINE
  8
0
  10
0.48221
  20
0.3538
  30
0
  11
0.4861
  21
0.35423
  31
0
  0
LINE
  8
0
  10
0.4861
  20
0.35423
  30
0
  11
0.48978
  21
0.35518
  31
0
  0
LINE
  8
0
  10
0.48978
  20
0.35518
  30
0
  11
0.49331
  21
0.35649
  31
0
  0
LINE
  8
0
  10
0.49331
  20
0.35649
  30
0
  11
0.49728
  21
0.35671
  31
0
  0
LINE
  8
0
  10
0.49728
  20
0.35671
  30
0
  11
0.50132
  21
0.35673
  31
0
  0
LINE
  8
0
  10
0.50132
  20
0.35673
  30
0
  11
0.50542
  21
0.35658
  31
0
  0
LINE
  8
0
  10
0.50542
  20
0.35658
  30
0
  11
0.50956
  21
0.35627
  31
0
  0
LINE
  8
0
  10
0.50956
  20
0.35627
  30
0
  11
0.51375
  21
0.35579
  31
0
  0
LINE
  8
0
  10
0.51375
  20
0.35579
  30
0
  11
0.51965
  21
0.33766
  31
0
  0
LINE
  8
0
  10
0.51965
  20
0.33766
  30
0
  11
0.51653
  21
0.33481
  31
0
  0
LINE
  8
0
  10
0.51653
  20
0.33481
  30
0
  11
0.51336
  21
0.33212
  31
0
  0
LINE
  8
0
  10
0.51336
  20
0.33212
  30
0
  11
0.51014
  21
0.32959
  31
0
  0
LINE
  8
0
  10
0.51014
  20
0.32959
  30
0
  11
0.50686
  21
0.32724
  31
0
  0
LINE
  8
0
  10
0.50686
  20
0.32724
  30
0
  11
0.50352
  21
0.32507
  31
0
  0
LINE
  8
0
  10
0.50352
  20
0.32507
  30
0
  11
0.49989
  21
0.32406
  31
0
  0
LINE
  8
0
  10
0.49989
  20
0.32406
  30
0
  11
0.49636
  21
0.32266
  31
0
  0
LINE
  8
0
  10
0.49636
  20
0.32266
  30
0
  11
0.49295
  21
0.32072
  31
0
  0
LINE
  8
0
  10
0.49295
  20
0.32072
  30
0
  11
0.49132
  21
0.31947
  31
0
  0
LINE
  8
0
  10
0.49132
  20
0.31947
  30
0
  11
0.48975
  21
0.31791
  31
0
  0
LINE
  8
0
  10
0.48975
  20
0.31791
  30
0
  11
0.48901
  21
0.31696
  31
0
  0
LINE
  8
0
  10
0.48901
  20
0.31696
  30
0
  11
0.48831
  21
0.31581
  31
0
  0
LINE
  8
0
  10
0.48831
  20
0.31581
  30
0
  11
0.48767
  21
0.31432
  31
0
  0
LINE
  8
0
  10
0.48767
  20
0.31432
  30
0
  11
0.48746
  21
0.31082
  31
0
  0
LINE
  8
0
  10
0.48746
  20
0.31082
  30
0
  11
0.49075
  21
0.29003
  31
0
  0
LINE
  8
0
  10
0.76491
  20
0.26491
  30
0
  11
0.76491
  21
0.26491
  31
0
  0
LINE
  8
0
  10
0.76491
  20
0.26491
  30
0
  11
0.74788
  21
0.39432
  31
0
  0
LINE
  8
0
  10
0.74788
  20
0.39432
  30
0
  11
0.69793
  21
0.51491
  31
0
  0
LINE
  8
0
  10
0.69793
  20
0.51491
  30
0
  11
0.61847
  21
0.61847
  31
0
  0
LINE
  8
0
  10
0.61847
  20
0.61847
  30
0
  11
0.51491
  21
0.69793
  31
0
  0
LINE
  8
0
  10
0.51491
  20
0.69793
  30
0
  11
0.39432
  21
0.74788
  31
0
  0
LINE
  8
0
  10
0.39432
  20
0.74788
  30
0
  11
0.26491
  21
0.76491
  31
0
  0
LINE
  8
0
  10
0.26491
  20
0.76491
  30
0
  11
0.13551
  21
0.74788
  31
0
  0
LINE
  8
0
  10
0.13551
  20
0.74788
  30
0
  11
0.01491
  21
0.69793
  31
0
  0
LINE
  8
0
  10
0.01491
  20
0.69793
  30
0
  11
-0.08864
  21
0.61847
  31
0
  0
LINE
  8
0
  10
-0.08864
  20
0.61847
  30
0
  11
-0.1681
  21
0.51491
  31
0
  0
LINE
  8
0
  10
-0.1681
  20
0.51491
  30
0
  11
-0.21805
  21
0.39432
  31
0
  0
LINE
  8
0
  10
-0.21805
  20
0.39432
  30
0
  11
-0.23509
  21
0.26491
  31
0
  0
LINE
  8
0
  10
-0.23509
  20
0.26491
  30
0
  11
-0.21805
  21
0.13551
  31
0
  0
LINE
  8
0
  10
-0.21805
  20
0.13551
  30
0
  11
-0.1681
  21
0.01491
  31
0
  0
LINE
  8
0
  10
-0.1681
  20
0.01491
  30
0
  11
-0.08864
  21
-0.08864
  31
0
  0
LINE
  8
0
  10
-0.08864
  20
-0.08864
  30
0
  11
0.01491
  21
-0.1681
  31
0
  0
LINE
  8
0
  10
0.01491
  20
-0.1681
  30
0
  11
0.13551
  21
-0.21805
  31
0
  0
LINE
  8
0
  10
0.13551
  20
-0.21805
  30
0
  11
0.26491
  21
-0.23509
  31
0
  0
LINE
  8
0
  10
0.26491
  20
-0.23509
  30
0
  11
0.39432
  21
-0.21805
  31
0
  0
LINE
  8
0
  10
0.39432
  20
-0.21805
  30
0
  11
0.51491
  21
-0.1681
  31
0
  0
LINE
  8
0
  10
0.51491
  20
-0.1681
  30
0
  11
0.61847
  21
-0.08864
  31
0
  0
LINE
  8
0
  10
0.61847
  20
-0.08864
  30
0
  11
0.69793
  21
0.01491
  31
0
  0
LINE
  8
0
  10
0.69793
  20
0.01491
  30
0
  11
0.74788
  21
0.13551
  31
0
  0
LINE
  8
0
  10
0.74788
  20
0.13551
  30
0
  11
0.76491
  21
0.26491
  31
0
  0
LINE
  8
0
  10
0.76491
  20
0.26491
  30
0
  11
0.76491
  21
0.26491
  31
0
  0
LINE
  8
0
  10
0.48935
  20
0.22937
  30
0
  11
0.52657
  21
0.22347
  31
0
  0
LINE
  8
0
  10
0.46738
  20
0.16175
  30
0
  11
0.50096
  21
0.14465
  31
0
  0
LINE
  8
0
  10
0.42559
  20
0.10424
  30
0
  11
0.45224
  21
0.07759
  31
0
  0
LINE
  8
0
  10
0.36808
  20
0.06245
  30
0
  11
0.38518
  21
0.02887
  31
0
  0
LINE
  8
0
  10
0.30046
  20
0.04048
  30
0
  11
0.30636
  21
0.00326
  31
0
  0
LINE
  8
0
  10
0.22937
  20
0.04048
  30
0
  11
0.22347
  21
0.00326
  31
0
  0
LINE
  8
0
  10
0.16175
  20
0.06245
  30
0
  11
0.14465
  21
0.02887
  31
0
  0
LINE
  8
0
  10
0.10424
  20
0.10424
  30
0
  11
0.07759
  21
0.07759
  31
0
  0
LINE
  8
0
  10
0.06245
  20
0.16175
  30
0
  11
0.02887
  21
0.14465
  31
0
  0
LINE
  8
0
  10
0.04048
  20
0.22937
  30
0
  11
0.00326
  21
0.22347
  31
0
  0
LINE
  8
0
  10
0.04048
  20
0.30046
  30
0
  11
0.00326
  21
0.30636
  31
0
  0
LINE
  8
0
  10
0.06245
  20
0.36808
  30
0
  11
0.02887
  21
0.38518
  31
0
  0
LINE
  8
0
  10
0.10424
  20
0.42559
  30
0
  11
0.07759
  21
0.45224
  31
0
  0
LINE
  8
0
  10
0.16175
  20
0.46738
  30
0
  11
0.14465
  21
0.50096
  31
0
  0
LINE
  8
0
  10
0.22937
  20
0.48935
  30
0
  11
0.22347
  21
0.52657
  31
0
  0
LINE
  8
0
  10
0.30046
  20
0.48935
  30
0
  11
0.30636
  21
0.52657
  31
0
  0
LINE
  8
0
  10
0.36808
  20
0.46738
  30
0
  11
0.38518
  21
0.50096
  31
0
  0
LINE
  8
0
  10
0.42559
  20
0.42559
  30
0
  11
0.45224
  21
0.45224
  31
0
  0
LINE
  8
0
  10
0.46738
  20
0.36808
  30
0
  11
0.50096
  21
0.38518
  31
0
  0
LINE
  8
0
  10
0.48935
  20
0.30046
  30
0
  11
0.52657
  21
0.30636
  31
0
  0
LINE
  8
0
  10
0.51491
  20
0.26491
  30
0
  11
0.51491
  21
0.26491
  31
0
  0
LINE
  8
0
  10
0.51491
  20
0.26491
  30
0
  11
0.51442
  21
0.28061
  31
0
  0
LINE
  8
0
  10
0.51442
  20
0.28061
  30
0
  11
0.51294
  21
0.29625
  31
0
  0
LINE
  8
0
  10
0.51294
  20
0.29625
  30
0
  11
0.51049
  21
0.31176
  31
0
  0
LINE
  8
0
  10
0.51049
  20
0.31176
  30
0
  11
0.50706
  21
0.32709
  31
0
  0
LINE
  8
0
  10
0.50706
  20
0.32709
  30
0
  11
0.50268
  21
0.34217
  31
0
  0
LINE
  8
0
  10
0.50268
  20
0.34217
  30
0
  11
0.49736
  21
0.35695
  31
0
  0
LINE
  8
0
  10
0.49736
  20
0.35695
  30
0
  11
0.49112
  21
0.37136
  31
0
  0
LINE
  8
0
  10
0.49112
  20
0.37136
  30
0
  11
0.48399
  21
0.38535
  31
0
  0
LINE
  8
0
  10
0.48399
  20
0.38535
  30
0
  11
0.476
  21
0.39887
  31
0
  0
LINE
  8
0
  10
0.476
  20
0.39887
  30
0
  11
0.46717
  21
0.41186
  31
0
  0
LINE
  8
0
  10
0.46717
  20
0.41186
  30
0
  11
0.45754
  21
0.42427
  31
0
  0
LINE
  8
0
  10
0.45754
  20
0.42427
  30
0
  11
0.44716
  21
0.43605
  31
0
  0
LINE
  8
0
  10
0.44716
  20
0.43605
  30
0
  11
0.43605
  21
0.44716
  31
0
  0
LINE
  8
0
  10
0.43605
  20
0.44716
  30
0
  11
0.42427
  21
0.45754
  31
0
  0
LINE
  8
0
  10
0.42427
  20
0.45754
  30
0
  11
0.41186
  21
0.46717
  31
0
  0
LINE
  8
0
  10
0.41186
  20
0.46717
  30
0
  11
0.39887
  21
0.476
  31
0
  0
LINE
  8
0
  10
0.39887
  20
0.476
  30
0
  11
0.38535
  21
0.48399
  31
0
  0
LINE
  8
0
  10
0.38535
  20
0.48399
  30
0
  11
0.37136
  21
0.49112
  31
0
  0
LINE
  8
0
  10
0.37136
  20
0.49112
  30
0
  11
0.35695
  21
0.49736
  31
0
  0
LINE
  8
0
  10
0.35695
  20
0.49736
  30
0
  11
0.34217
  21
0.50268
  31
0
  0
LINE
  8
0
  10
0.34217
  20
0.50268
  30
0
  11
0.32709
  21
0.50706
  31
0
  0
LINE
  8
0
  10
0.32709
  20
0.50706
  30
0
  11
0.31176
  21
0.51049
  31
0
  0
LINE
  8
0
  10
0.31176
  20
0.51049
  30
0
  11
0.29625
  21
0.51294
  31
0
  0
LINE
  8
0
  10
0.29625
  20
0.51294
  30
0
  11
0.28061
  21
0.51442
  31
0
  0
LINE
  8
0
  10
0.28061
  20
0.51442
  30
0
  11
0.26491
  21
0.51491
  31
0
  0
LINE
  8
0
  10
0.26491
  20
0.51491
  30
0
  11
0.24922
  21
0.51442
  31
0
  0
LINE
  8
0
  10
0.24922
  20
0.51442
  30
0
  11
0.23358
  21
0.51294
  31
0
  0
LINE
  8
0
  10
0.23358
  20
0.51294
  30
0
  11
0.21807
  21
0.51049
  31
0
  0
LINE
  8
0
  10
0.21807
  20
0.51049
  30
0
  11
0.20274
  21
0.50706
  31
0
  0
LINE
  8
0
  10
0.20274
  20
0.50706
  30
0
  11
0.18766
  21
0.50268
  31
0
  0
LINE
  8
0
  10
0.18766
  20
0.50268
  30
0
  11
0.17288
  21
0.49736
  31
0
  0
LINE
  8
0
  10
0.17288
  20
0.49736
  30
0
  11
0.15847
  21
0.49112
  31
0
  0
LINE
  8
0
  10
0.15847
  20
0.49112
  30
0
  11
0.14448
  21
0.48399
  31
0
  0
LINE
  8
0
  10
0.14448
  20
0.48399
  30
0
  11
0.13096
  21
0.476
  31
0
  0
LINE
  8
0
  10
0.13096
  20
0.476
  30
0
  11
0.11797
  21
0.46717
  31
0
  0
LINE
  8
0
  10
0.11797
  20
0.46717
  30
0
  11
0.10556
  21
0.45754
  31
0
  0
LINE
  8
0
  10
0.10556
  20
0.45754
  30
0
  11
0.09378
  21
0.44716
  31
0
  0
LINE
  8
0
  10
0.09378
  20
0.44716
  30
0
  11
0.08267
  21
0.43605
  31
0
  0
LINE
  8
0
  10
0.08267
  20
0.43605
  30
0
  11
0.07229
  21
0.42427
  31
0
  0
LINE
  8
0
  10
0.07229
  20
0.42427
  30
0
  11
0.06266
  21
0.41186
  31
0
  0
LINE
  8
0
  10
0.06266
  20
0.41186
  30
0
  11
0.05383
  21
0.39887
  31
0
  0
LINE
  8
0
  10
0.05383
  20
0.39887
  30
0
  11
0.04584
  21
0.38535
  31
0
  0
LINE
  8
0
  10
0.04584
  20
0.38535
  30
0
  11
0.03871
  21
0.37136
  31
0
  0
LINE
  8
0
  10
0.03871
  20
0.37136
  30
0
  11
0.03247
  21
0.35695
  31
0
  0
LINE
  8
0
  10
0.03247
  20
0.35695
  30
0
  11
0.02715
  21
0.34217
  31
0
  0
LINE
  8
0
  10
0.02715
  20
0.34217
  30
0
  11
0.02277
  21
0.32709
  31
0
  0
LINE
  8
0
  10
0.02277
  20
0.32709
  30
0
  11
0.01934
  21
0.31176
  31
0
  0
LINE
  8
0
  10
0.01934
  20
0.31176
  30
0
  11
0.01689
  21
0.29625
  31
0
  0
LINE
  8
0
  10
0.01689
  20
0.29625
  30
0
  11
0.01541
  21
0.28061
  31
0
  0
LINE
  8
0
  10
0.01541
  20
0.28061
  30
0
  11
0.01491
  21
0.26491
  31
0
  0
LINE
  8
0
  10
0.01491
  20
0.26491
  30
0
  11
0.01541
  21
0.24922
  31
0
  0
LINE
  8
0
  10
0.01541
  20
0.24922
  30
0
  11
0.01689
  21
0.23358
  31
0
  0
LINE
  8
0
  10
0.01689
  20
0.23358
  30
0
  11
0.01934
  21
0.21807
  31
0
  0
LINE
  8
0
  10
0.01934
  20
0.21807
  30
0
  11
0.02277
  21
0.20274
  31
0
  0
LINE
  8
0
  10
0.02277
  20
0.20274
  30
0
  11
0.02715
  21
0.18766
  31
0
  0
LINE
  8
0
  10
0.02715
  20
0.18766
  30
0
  11
0.03247
  21
0.17288
  31
0
  0
LINE
  8
0
  10
0.03247
  20
0.17288
  30
0
  11
0.03871
  21
0.15847
  31
0
  0
LINE
  8
0
  10
0.03871
  20
0.15847
  30
0
  11
0.04584
  21
0.14448
  31
0
  0
LINE
  8
0
  10
0.04584
  20
0.14448
  30
0
  11
0.05383
  21
0.13096
  31
0
  0
LINE
  8
0
  10
0.05383
  20
0.13096
  30
0
  11
0.06266
  21
0.11797
  31
0
  0
LINE
  8
0
  10
0.06266
  20
0.11797
  30
0
  11
0.07229
  21
0.10556
  31
0
  0
LINE
  8
0
  10
0.07229
  20
0.10556
  30
0
  11
0.08267
  21
0.09378
  31
0
  0
LINE
  8
0
  10
0.08267
  20
0.09378
  30
0
  11
0.09378
  21
0.08267
  31
0
  0
LINE
  8
0
  10
0.09378
  20
0.08267
  30
0
  11
0.10556
  21
0.07229
  31
0
  0
LINE
  8
0
  10
0.10556
  20
0.07229
  30
0
  11
0.11797
  21
0.06266
  31
0
  0
LINE
  8
0
  10
0.11797
  20
0.06266
  30
0
  11
0.13096
  21
0.05383
  31
0
  0
LINE
  8
0
  10
0.13096
  20
0.05383
  30
0
  11
0.14448
  21
0.04584
  31
0
  0
LINE
  8
0
  10
0.14448
  20
0.04584
  30
0
  11
0.15847
  21
0.03871
  31
0
  0
LINE
  8
0
  10
0.15847
  20
0.03871
  30
0
  11
0.17288
  21
0.03247
  31
0
  0
LINE
  8
0
  10
0.17288
  20
0.03247
  30
0
  11
0.18766
  21
0.02715
  31
0
  0
LINE
  8
0
  10
0.18766
  20
0.02715
  30
0
  11
0.20274
  21
0.02277
  31
0
  0
LINE
  8
0
  10
0.20274
  20
0.02277
  30
0
  11
0.21807
  21
0.01934
  31
0
  0
LINE
  8
0
  10
0.21807
  20
0.01934
  30
0
  11
0.23358
  21
0.01689
  31
0
  0
LINE
  8
0
  10
0.23358
  20
0.01689
  30
0
  11
0.24922
  21
0.01541
  31
0
  0
LINE
  8
0
  10
0.24922
  20
0.01541
  30
0
  11
0.26491
  21
0.01491
  31
0
  0
LINE
  8
0
  10
0.26491
  20
0.01491
  30
0
  11
0.28061
  21
0.01541
  31
0
  0
LINE
  8
0
  10
0.28061
  20
0.01541
  30
0
  11
0.29625
  21
0.01689
  31
0
  0
LINE
  8
0
  10
0.29625
  20
0.01689
  30
0
  11
0.31176
  21
0.01934
  31
0
  0
LINE
  8
0
  10
0.31176
  20
0.01934
  30
0
  11
0.32709
  21
0.02277
  31
0
  0
LINE
  8
0
  10
0.32709
  20
0.02277
  30
0
  11
0.34217
  21
0.02715
  31
0
  0
LINE
  8
0
  10
0.34217
  20
0.02715
  30
0
  11
0.35695
  21
0.03247
  31
0
  0
LINE
  8
0
  10
0.35695
  20
0.03247
  30
0
  11
0.37136
  21
0.03871
  31
0
  0
LINE
  8
0
  10
0.37136
  20
0.03871
  30
0
  11
0.38535
  21
0.04584
  31
0
  0
LINE
  8
0
  10
0.38535
  20
0.04584
  30
0
  11
0.39887
  21
0.05383
  31
0
  0
LINE
  8
0
  10
0.39887
  20
0.05383
  30
0
  11
0.41186
  21
0.06266
  31
0
  0
LINE
  8
0
  10
0.41186
  20
0.06266
  30
0
  11
0.42427
  21
0.07229
  31
0
  0
LINE
  8
0
  10
0.42427
  20
0.07229
  30
0
  11
0.43605
  21
0.08267
  31
0
  0
LINE
  8
0
  10
0.43605
  20
0.08267
  30
0
  11
0.44716
  21
0.09378
  31
0
  0
LINE
  8
0
  10
0.44716
  20
0.09378
  30
0
  11
0.45754
  21
0.10556
  31
0
  0
LINE
  8
0
  10
0.45754
  20
0.10556
  30
0
  11
0.46717
  21
0.11797
  31
0
  0
LINE
  8
0
  10
0.46717
  20
0.11797
  30
0
  11
0.476
  21
0.13096
  31
0
  0
LINE
  8
0
  10
0.476
  20
0.13096
  30
0
  11
0.48399
  21
0.14448
  31
0
  0
LINE
  8
0
  10
0.48399
  20
0.14448
  30
0
  11
0.49112
  21
0.15847
  31
0
  0
LINE
  8
0
  10
0.49112
  20
0.15847
  30
0
  11
0.49736
  21
0.17288
  31
0
  0
LINE
  8
0
  10
0.49736
  20
0.17288
  30
0
  11
0.50268
  21
0.18766
  31
0
  0
LINE
  8
0
  10
0.50268
  20
0.18766
  30
0
  11
0.50706
  21
0.20274
  31
0
  0
LINE
  8
0
  10
0.50706
  20
0.20274
  30
0
  11
0.51049
  21
0.21807
  31
0
  0
LINE
  8
0
  10
0.51049
  20
0.21807
  30
0
  11
0.51294
  21
0.23358
  31
0
  0
LINE
  8
0
  10
0.51294
  20
0.23358
  30
0
  11
0.51442
  21
0.24922
  31
0
  0
LINE
  8
0
  10
0.51442
  20
0.24922
  30
0
  11
0.51491
  21
0.26491
  31
0
  0
LINE
  8
0
  10
0.51491
  20
0.26491
  30
0
  11
0.51491
  21
0.26491
  31
0
  0
LINE
  8
0
  10
0.17661
  20
0.26491
  30
0
  11
0.35322
  21
0.26491
  31
0
  0
LINE
  8
0
  10
0.26491
  20
0.17661
  30
0
  11
0.26491
  21
0.35322
  31
0
  0
LINE
  8
0
  10
0.53867
  20
0.27504
  30
0
  11
0.53867
  21
0.27504
  31
0
  0
LINE
  8
0
  10
0.53867
  20
0.27504
  30
0
  11
0.53864
  21
0.27775
  31
0
  0
LINE
  8
0
  10
0.53864
  20
0.27775
  30
0
  11
0.53829
  21
0.2789
  31
0
  0
LINE
  8
0
  10
0.53829
  20
0.2789
  30
0
  11
0.53788
  21
0.27979
  31
0
  0
LINE
  8
0
  10
0.53788
  20
0.27979
  30
0
  11
0.53745
  21
0.28053
  31
0
  0
LINE
  8
0
  10
0.53745
  20
0.28053
  30
0
  11
0.53698
  21
0.28118
  31
0
  0
LINE
  8
0
  10
0.53698
  20
0.28118
  30
0
  11
0.53651
  21
0.28175
  31
0
  0
LINE
  8
0
  10
0.53651
  20
0.28175
  30
0
  11
0.53551
  21
0.28275
  31
0
  0
LINE
  8
0
  10
0.53551
  20
0.28275
  30
0
  11
0.53446
  21
0.28359
  31
0
  0
LINE
  8
0
  10
0.53446
  20
0.28359
  30
0
  11
0.53338
  21
0.28431
  31
0
  0
LINE
  8
0
  10
0.53338
  20
0.28431
  30
0
  11
0.53113
  21
0.28548
  31
0
  0
LINE
  8
0
  10
0.53113
  20
0.28548
  30
0
  11
0.52877
  21
0.28634
  31
0
  0
LINE
  8
0
  10
0.52877
  20
0.28634
  30
0
  11
0.52632
  21
0.28695
  31
0
  0
LINE
  8
0
  10
0.52632
  20
0.28695
  30
0
  11
0.5238
  21
0.28734
  31
0
  0
LINE
  8
0
  10
0.5238
  20
0.28734
  30
0
  11
0.5212
  21
0.28751
  31
0
  0
LINE
  8
0
  10
0.5212
  20
0.28751
  30
0
  11
0.5188
  21
0.28823
  31
0
  0
LINE
  8
0
  10
0.5188
  20
0.28823
  30
0
  11
0.51674
  21
0.28999
  31
0
  0
LINE
  8
0
  10
0.51674
  20
0.28999
  30
0
  11
0.51478
  21
0.292
  31
0
  0
LINE
  8
0
  10
0.51478
  20
0.292
  30
0
  11
0.51292
  21
0.29421
  31
0
  0
LINE
  8
0
  10
0.51292
  20
0.29421
  30
0
  11
0.51117
  21
0.29662
  31
0
  0
LINE
  8
0
  10
0.51117
  20
0.29662
  30
0
  11
0.50952
  21
0.29921
  31
0
  0
LINE
  8
0
  10
0.50952
  20
0.29921
  30
0
  11
0.50799
  21
0.30198
  31
0
  0
LINE
  8
0
  10
0.50799
  20
0.30198
  30
0
  11
0.51205
  21
0.30987
  31
0
  0
LINE
  8
0
  10
0.51205
  20
0.30987
  30
0
  11
0.51686
  21
0.31733
  31
0
  0
LINE
  8
0
  10
0.51686
  20
0.31733
  30
0
  11
0.52002
  21
0.31739
  31
0
  0
LINE
  8
0
  10
0.52002
  20
0.31739
  30
0
  11
0.52308
  21
0.31726
  31
0
  0
LINE
  8
0
  10
0.52308
  20
0.31726
  30
0
  11
0.52605
  21
0.31695
  31
0
  0
LINE
  8
0
  10
0.52605
  20
0.31695
  30
0
  11
0.52889
  21
0.31644
  31
0
  0
LINE
  8
0
  10
0.52889
  20
0.31644
  30
0
  11
0.53161
  21
0.31575
  31
0
  0
LINE
  8
0
  10
0.53161
  20
0.31575
  30
0
  11
0.53417
  21
0.31485
  31
0
  0
LINE
  8
0
  10
0.53417
  20
0.31485
  30
0
  11
0.53599
  21
0.31312
  31
0
  0
LINE
  8
0
  10
0.53599
  20
0.31312
  30
0
  11
0.53744
  21
0.31096
  31
0
  0
LINE
  8
0
  10
0.53744
  20
0.31096
  30
0
  11
0.53903
  21
0.30897
  31
0
  0
LINE
  8
0
  10
0.53903
  20
0.30897
  30
0
  11
0.54078
  21
0.30715
  31
0
  0
LINE
  8
0
  10
0.54078
  20
0.30715
  30
0
  11
0.54271
  21
0.30554
  31
0
  0
LINE
  8
0
  10
0.54271
  20
0.30554
  30
0
  11
0.54485
  21
0.30417
  31
0
  0
LINE
  8
0
  10
0.54485
  20
0.30417
  30
0
  11
0.54601
  21
0.3036
  31
0
  0
LINE
  8
0
  10
0.54601
  20
0.3036
  30
0
  11
0.54727
  21
0.30312
  31
0
  0
LINE
  8
0
  10
0.54727
  20
0.30312
  30
0
  11
0.54863
  21
0.30275
  31
0
  0
LINE
  8
0
  10
0.54863
  20
0.30275
  30
0
  11
0.54937
  21
0.30262
  31
0
  0
LINE
  8
0
  10
0.54937
  20
0.30262
  30
0
  11
0.55016
  21
0.30255
  31
0
  0
LINE
  8
0
  10
0.55016
  20
0.30255
  30
0
  11
0.55102
  21
0.30254
  31
0
  0
LINE
  8
0
  10
0.55102
  20
0.30254
  30
0
  11
0.55199
  21
0.30263
  31
0
  0
LINE
  8
0
  10
0.55199
  20
0.30263
  30
0
  11
0.55316
  21
0.3029
  31
0
  0
LINE
  8
0
  10
0.55316
  20
0.3029
  30
0
  11
0.55553
  21
0.30423
  31
0
  0
LINE
  8
0
  10
0.55553
  20
0.30423
  30
0
  11
0.5638
  21
0.31015
  31
0
  0
LINE
  8
0
  10
0.5638
  20
0.31015
  30
0
  11
0.57306
  21
0.31435
  31
0
  0
LINE
  8
0
  10
0.57306
  20
0.31435
  30
0
  11
0.57539
  21
0.31574
  31
0
  0
LINE
  8
0
  10
0.57539
  20
0.31574
  30
0
  11
0.57622
  21
0.31662
  31
0
  0
LINE
  8
0
  10
0.57622
  20
0.31662
  30
0
  11
0.57678
  21
0.31741
  31
0
  0
LINE
  8
0
  10
0.57678
  20
0.31741
  30
0
  11
0.5772
  21
0.31816
  31
0
  0
LINE
  8
0
  10
0.5772
  20
0.31816
  30
0
  11
0.57753
  21
0.31888
  31
0
  0
LINE
  8
0
  10
0.57753
  20
0.31888
  30
0
  11
0.57779
  21
0.31959
  31
0
  0
LINE
  8
0
  10
0.57779
  20
0.31959
  30
0
  11
0.57816
  21
0.32095
  31
0
  0
LINE
  8
0
  10
0.57816
  20
0.32095
  30
0
  11
0.57836
  21
0.32228
  31
0
  0
LINE
  8
0
  10
0.57836
  20
0.32228
  30
0
  11
0.57845
  21
0.32357
  31
0
  0
LINE
  8
0
  10
0.57845
  20
0.32357
  30
0
  11
0.57833
  21
0.32611
  31
0
  0
LINE
  8
0
  10
0.57833
  20
0.32611
  30
0
  11
0.5779
  21
0.32858
  31
0
  0
LINE
  8
0
  10
0.5779
  20
0.32858
  30
0
  11
0.5772
  21
0.33101
  31
0
  0
LINE
  8
0
  10
0.5772
  20
0.33101
  30
0
  11
0.57627
  21
0.33339
  31
0
  0
LINE
  8
0
  10
0.57627
  20
0.33339
  30
0
  11
0.57513
  21
0.33572
  31
0
  0
LINE
  8
0
  10
0.57513
  20
0.33572
  30
0
  11
0.57454
  21
0.33816
  31
0
  0
LINE
  8
0
  10
0.57454
  20
0.33816
  30
0
  11
0.57505
  21
0.34083
  31
0
  0
LINE
  8
0
  10
0.57505
  20
0.34083
  30
0
  11
0.5758
  21
0.34352
  31
0
  0
LINE
  8
0
  10
0.5758
  20
0.34352
  30
0
  11
0.57679
  21
0.34624
  31
0
  0
LINE
  8
0
  10
0.57679
  20
0.34624
  30
0
  11
0.578
  21
0.34896
  31
0
  0
LINE
  8
0
  10
0.578
  20
0.34896
  30
0
  11
0.57942
  21
0.35169
  31
0
  0
LINE
  8
0
  10
0.57942
  20
0.35169
  30
0
  11
0.58105
  21
0.35439
  31
0
  0
LINE
  8
0
  10
0.58105
  20
0.35439
  30
0
  11
0.58991
  21
0.35483
  31
0
  0
LINE
  8
0
  10
0.58991
  20
0.35483
  30
0
  11
0.59878
  21
0.35439
  31
0
  0
LINE
  8
0
  10
0.59878
  20
0.35439
  30
0
  11
0.60041
  21
0.35169
  31
0
  0
LINE
  8
0
  10
0.60041
  20
0.35169
  30
0
  11
0.60183
  21
0.34896
  31
0
  0
LINE
  8
0
  10
0.60183
  20
0.34896
  30
0
  11
0.60304
  21
0.34624
  31
0
  0
LINE
  8
0
  10
0.60304
  20
0.34624
  30
0
  11
0.60403
  21
0.34352
  31
0
  0
LINE
  8
0
  10
0.60403
  20
0.34352
  30
0
  11
0.60478
  21
0.34083
  31
0
  0
LINE
  8
0
  10
0.60478
  20
0.34083
  30
0
  11
0.60528
  21
0.33816
  31
0
  0
LINE
  8
0
  10
0.60528
  20
0.33816
  30
0
  11
0.6047
  21
0.33572
  31
0
  0
LINE
  8
0
  10
0.6047
  20
0.33572
  30
0
  11
0.60356
  21
0.33339
  31
0
  0
LINE
  8
0
  10
0.60356
  20
0.33339
  30
0
  11
0.60263
  21
0.33101
  31
0
  0
LINE
  8
0
  10
0.60263
  20
0.33101
  30
0
  11
0.60193
  21
0.32858
  31
0
  0
LINE
  8
0
  10
0.60193
  20
0.32858
  30
0
  11
0.6015
  21
0.32611
  31
0
  0
LINE
  8
0
  10
0.6015
  20
0.32611
  30
0
  11
0.60138
  21
0.32357
  31
0
  0
LINE
  8
0
  10
0.60138
  20
0.32357
  30
0
  11
0.60147
  21
0.32228
  31
0
  0
LINE
  8
0
  10
0.60147
  20
0.32228
  30
0
  11
0.60167
  21
0.32095
  31
0
  0
LINE
  8
0
  10
0.60167
  20
0.32095
  30
0
  11
0.60204
  21
0.31959
  31
0
  0
LINE
  8
0
  10
0.60204
  20
0.31959
  30
0
  11
0.6023
  21
0.31888
  31
0
  0
LINE
  8
0
  10
0.6023
  20
0.31888
  30
0
  11
0.60263
  21
0.31816
  31
0
  0
LINE
  8
0
  10
0.60263
  20
0.31816
  30
0
  11
0.60305
  21
0.31741
  31
0
  0
LINE
  8
0
  10
0.60305
  20
0.31741
  30
0
  11
0.60361
  21
0.31662
  31
0
  0
LINE
  8
0
  10
0.60361
  20
0.31662
  30
0
  11
0.60444
  21
0.31574
  31
0
  0
LINE
  8
0
  10
0.60444
  20
0.31574
  30
0
  11
0.60677
  21
0.31435
  31
0
  0
LINE
  8
0
  10
0.60677
  20
0.31435
  30
0
  11
0.61603
  21
0.31015
  31
0
  0
LINE
  8
0
  10
0.61603
  20
0.31015
  30
0
  11
0.6243
  21
0.30423
  31
0
  0
LINE
  8
0
  10
0.6243
  20
0.30423
  30
0
  11
0.62667
  21
0.3029
  31
0
  0
LINE
  8
0
  10
0.62667
  20
0.3029
  30
0
  11
0.62784
  21
0.30263
  31
0
  0
LINE
  8
0
  10
0.62784
  20
0.30263
  30
0
  11
0.62881
  21
0.30254
  31
0
  0
LINE
  8
0
  10
0.62881
  20
0.30254
  30
0
  11
0.62967
  21
0.30255
  31
0
  0
LINE
  8
0
  10
0.62967
  20
0.30255
  30
0
  11
0.63046
  21
0.30262
  31
0
  0
LINE
  8
0
  10
0.63046
  20
0.30262
  30
0
  11
0.6312
  21
0.30275
  31
0
  0
LINE
  8
0
  10
0.6312
  20
0.30275
  30
0
  11
0.63256
  21
0.30312
  31
0
  0
LINE
  8
0
  10
0.63256
  20
0.30312
  30
0
  11
0.63381
  21
0.3036
  31
0
  0
LINE
  8
0
  10
0.63381
  20
0.3036
  30
0
  11
0.63498
  21
0.30417
  31
0
  0
LINE
  8
0
  10
0.63498
  20
0.30417
  30
0
  11
0.63712
  21
0.30554
  31
0
  0
LINE
  8
0
  10
0.63712
  20
0.30554
  30
0
  11
0.63905
  21
0.30715
  31
0
  0
LINE
  8
0
  10
0.63905
  20
0.30715
  30
0
  11
0.6408
  21
0.30897
  31
0
  0
LINE
  8
0
  10
0.6408
  20
0.30897
  30
0
  11
0.64239
  21
0.31096
  31
0
  0
LINE
  8
0
  10
0.64239
  20
0.31096
  30
0
  11
0.64384
  21
0.31312
  31
0
  0
LINE
  8
0
  10
0.64384
  20
0.31312
  30
0
  11
0.64566
  21
0.31485
  31
0
  0
LINE
  8
0
  10
0.64566
  20
0.31485
  30
0
  11
0.64822
  21
0.31575
  31
0
  0
LINE
  8
0
  10
0.64822
  20
0.31575
  30
0
  11
0.65093
  21
0.31644
  31
0
  0
LINE
  8
0
  10
0.65093
  20
0.31644
  30
0
  11
0.65378
  21
0.31695
  31
0
  0
LINE
  8
0
  10
0.65378
  20
0.31695
  30
0
  11
0.65675
  21
0.31726
  31
0
  0
LINE
  8
0
  10
0.65675
  20
0.31726
  30
0
  11
0.65981
  21
0.31739
  31
0
  0
LINE
  8
0
  10
0.65981
  20
0.31739
  30
0
  11
0.66297
  21
0.31733
  31
0
  0
LINE
  8
0
  10
0.66297
  20
0.31733
  30
0
  11
0.66778
  21
0.30987
  31
0
  0
LINE
  8
0
  10
0.66778
  20
0.30987
  30
0
  11
0.67184
  21
0.30198
  31
0
  0
LINE
  8
0
  10
0.67184
  20
0.30198
  30
0
  11
0.67031
  21
0.29921
  31
0
  0
LINE
  8
0
  10
0.67031
  20
0.29921
  30
0
  11
0.66866
  21
0.29662
  31
0
  0
LINE
  8
0
  10
0.66866
  20
0.29662
  30
0
  11
0.66691
  21
0.29421
  31
0
  0
LINE
  8
0
  10
0.66691
  20
0.29421
  30
0
  11
0.66505
  21
0.292
  31
0
  0
LINE
  8
0
  10
0.66505
  20
0.292
  30
0
  11
0.66309
  21
0.28999
  31
0
  0
LINE
  8
0
  10
0.66309
  20
0.28999
  30
0
  11
0.66103
  21
0.28823
  31
0
  0
LINE
  8
0
  10
0.66103
  20
0.28823
  30
0
  11
0.65862
  21
0.28751
  31
0
  0
LINE
  8
0
  10
0.65862
  20
0.28751
  30
0
  11
0.65603
  21
0.28734
  31
0
  0
LINE
  8
0
  10
0.65603
  20
0.28734
  30
0
  11
0.65351
  21
0.28695
  31
0
  0
LINE
  8
0
  10
0.65351
  20
0.28695
  30
0
  11
0.65106
  21
0.28634
  31
0
  0
LINE
  8
0
  10
0.65106
  20
0.28634
  30
0
  11
0.6487
  21
0.28548
  31
0
  0
LINE
  8
0
  10
0.6487
  20
0.28548
  30
0
  11
0.64645
  21
0.28431
  31
0
  0
LINE
  8
0
  10
0.64645
  20
0.28431
  30
0
  11
0.64537
  21
0.28359
  31
0
  0
LINE
  8
0
  10
0.64537
  20
0.28359
  30
0
  11
0.64432
  21
0.28275
  31
0
  0
LINE
  8
0
  10
0.64432
  20
0.28275
  30
0
  11
0.64332
  21
0.28175
  31
0
  0
LINE
  8
0
  10
0.64332
  20
0.28175
  30
0
  11
0.64284
  21
0.28118
  31
0
  0
LINE
  8
0
  10
0.64284
  20
0.28118
  30
0
  11
0.64238
  21
0.28053
  31
0
  0
LINE
  8
0
  10
0.64238
  20
0.28053
  30
0
  11
0.64195
  21
0.27979
  31
0
  0
LINE
  8
0
  10
0.64195
  20
0.27979
  30
0
  11
0.64154
  21
0.2789
  31
0
  0
LINE
  8
0
  10
0.64154
  20
0.2789
  30
0
  11
0.64119
  21
0.27775
  31
0
  0
LINE
  8
0
  10
0.64119
  20
0.27775
  30
0
  11
0.64116
  21
0.27504
  31
0
  0
LINE
  8
0
  10
0.64116
  20
0.27504
  30
0
  11
0.64215
  21
0.26491
  31
0
  0
LINE
  8
0
  10
0.64215
  20
0.26491
  30
0
  11
0.64116
  21
0.25479
  31
0
  0
LINE
  8
0
  10
0.64116
  20
0.25479
  30
0
  11
0.64119
  21
0.25208
  31
0
  0
LINE
  8
0
  10
0.64119
  20
0.25208
  30
0
  11
0.64154
  21
0.25092
  31
0
  0
LINE
  8
0
  10
0.64154
  20
0.25092
  30
0
  11
0.64195
  21
0.25004
  31
0
  0
LINE
  8
0
  10
0.64195
  20
0.25004
  30
0
  11
0.64238
  21
0.2493
  31
0
  0
LINE
  8
0
  10
0.64238
  20
0.2493
  30
0
  11
0.64284
  21
0.24865
  31
0
  0
LINE
  8
0
  10
0.64284
  20
0.24865
  30
0
  11
0.64332
  21
0.24808
  31
0
  0
LINE
  8
0
  10
0.64332
  20
0.24808
  30
0
  11
0.64432
  21
0.24708
  31
0
  0
LINE
  8
0
  10
0.64432
  20
0.24708
  30
0
  11
0.64537
  21
0.24624
  31
0
  0
LINE
  8
0
  10
0.64537
  20
0.24624
  30
0
  11
0.64645
  21
0.24551
  31
0
  0
LINE
  8
0
  10
0.64645
  20
0.24551
  30
0
  11
0.6487
  21
0.24435
  31
0
  0
LINE
  8
0
  10
0.6487
  20
0.24435
  30
0
  11
0.65106
  21
0.24349
  31
0
  0
LINE
  8
0
  10
0.65106
  20
0.24349
  30
0
  11
0.65351
  21
0.24288
  31
0
  0
LINE
  8
0
  10
0.65351
  20
0.24288
  30
0
  11
0.65603
  21
0.24249
  31
0
  0
LINE
  8
0
  10
0.65603
  20
0.24249
  30
0
  11
0.65862
  21
0.24232
  31
0
  0
LINE
  8
0
  10
0.65862
  20
0.24232
  30
0
  11
0.66103
  21
0.2416
  31
0
  0
LINE
  8
0
  10
0.66103
  20
0.2416
  30
0
  11
0.66309
  21
0.23984
  31
0
  0
LINE
  8
0
  10
0.66309
  20
0.23984
  30
0
  11
0.66505
  21
0.23783
  31
0
  0
LINE
  8
0
  10
0.66505
  20
0.23783
  30
0
  11
0.66691
  21
0.23562
  31
0
  0
LINE
  8
0
  10
0.66691
  20
0.23562
  30
0
  11
0.66866
  21
0.23321
  31
0
  0
LINE
  8
0
  10
0.66866
  20
0.23321
  30
0
  11
0.67031
  21
0.23062
  31
0
  0
LINE
  8
0
  10
0.67031
  20
0.23062
  30
0
  11
0.67184
  21
0.22785
  31
0
  0
LINE
  8
0
  10
0.67184
  20
0.22785
  30
0
  11
0.66778
  21
0.21996
  31
0
  0
LINE
  8
0
  10
0.66778
  20
0.21996
  30
0
  11
0.66297
  21
0.2125
  31
0
  0
LINE
  8
0
  10
0.66297
  20
0.2125
  30
0
  11
0.65981
  21
0.21244
  31
0
  0
LINE
  8
0
  10
0.65981
  20
0.21244
  30
0
  11
0.65675
  21
0.21257
  31
0
  0
LINE
  8
0
  10
0.65675
  20
0.21257
  30
0
  11
0.65378
  21
0.21288
  31
0
  0
LINE
  8
0
  10
0.65378
  20
0.21288
  30
0
  11
0.65093
  21
0.21339
  31
0
  0
LINE
  8
0
  10
0.65093
  20
0.21339
  30
0
  11
0.64822
  21
0.21408
  31
0
  0
LINE
  8
0
  10
0.64822
  20
0.21408
  30
0
  11
0.64566
  21
0.21498
  31
0
  0
LINE
  8
0
  10
0.64566
  20
0.21498
  30
0
  11
0.64384
  21
0.21671
  31
0
  0
LINE
  8
0
  10
0.64384
  20
0.21671
  30
0
  11
0.64239
  21
0.21886
  31
0
  0
LINE
  8
0
  10
0.64239
  20
0.21886
  30
0
  11
0.6408
  21
0.22086
  31
0
  0
LINE
  8
0
  10
0.6408
  20
0.22086
  30
0
  11
0.63905
  21
0.22268
  31
0
  0
LINE
  8
0
  10
0.63905
  20
0.22268
  30
0
  11
0.63712
  21
0.22429
  31
0
  0
LINE
  8
0
  10
0.63712
  20
0.22429
  30
0
  11
0.63498
  21
0.22566
  31
0
  0
LINE
  8
0
  10
0.63498
  20
0.22566
  30
0
  11
0.63381
  21
0.22623
  31
0
  0
LINE
  8
0
  10
0.63381
  20
0.22623
  30
0
  11
0.63256
  21
0.22671
  31
0
  0
LINE
  8
0
  10
0.63256
  20
0.22671
  30
0
  11
0.6312
  21
0.22708
  31
0
  0
LINE
  8
0
  10
0.6312
  20
0.22708
  30
0
  11
0.63046
  21
0.22721
  31
0
  0
LINE
  8
0
  10
0.63046
  20
0.22721
  30
0
  11
0.62967
  21
0.22728
  31
0
  0
LINE
  8
0
  10
0.62967
  20
0.22728
  30
0
  11
0.62881
  21
0.22729
  31
0
  0
LINE
  8
0
  10
0.62881
  20
0.22729
  30
0
  11
0.62784
  21
0.2272
  31
0
  0
LINE
  8
0
  10
0.62784
  20
0.2272
  30
0
  11
0.62667
  21
0.22693
  31
0
  0
LINE
  8
0
  10
0.62667
  20
0.22693
  30
0
  11
0.6243
  21
0.2256
  31
0
  0
LINE
  8
0
  10
0.6243
  20
0.2256
  30
0
  11
0.61603
  21
0.21968
  31
0
  0
LINE
  8
0
  10
0.61603
  20
0.21968
  30
0
  11
0.60677
  21
0.21548
  31
0
  0
LINE
  8
0
  10
0.60677
  20
0.21548
  30
0
  11
0.60444
  21
0.21409
  31
0
  0
LINE
  8
0
  10
0.60444
  20
0.21409
  30
0
  11
0.60361
  21
0.21321
  31
0
  0
LINE
  8
0
  10
0.60361
  20
0.21321
  30
0
  11
0.60305
  21
0.21242
  31
0
  0
LINE
  8
0
  10
0.60305
  20
0.21242
  30
0
  11
0.60263
  21
0.21167
  31
0
  0
LINE
  8
0
  10
0.60263
  20
0.21167
  30
0
  11
0.6023
  21
0.21095
  31
0
  0
LINE
  8
0
  10
0.6023
  20
0.21095
  30
0
  11
0.60204
  21
0.21024
  31
0
  0
LINE
  8
0
  10
0.60204
  20
0.21024
  30
0
  11
0.60167
  21
0.20888
  31
0
  0
LINE
  8
0
  10
0.60167
  20
0.20888
  30
0
  11
0.60147
  21
0.20755
  31
0
  0
LINE
  8
0
  10
0.60147
  20
0.20755
  30
0
  11
0.60138
  21
0.20626
  31
0
  0
LINE
  8
0
  10
0.60138
  20
0.20626
  30
0
  11
0.6015
  21
0.20372
  31
0
  0
LINE
  8
0
  10
0.6015
  20
0.20372
  30
0
  11
0.60193
  21
0.20125
  31
0
  0
LINE
  8
0
  10
0.60193
  20
0.20125
  30
0
  11
0.60263
  21
0.19882
  31
0
  0
LINE
  8
0
  10
0.60263
  20
0.19882
  30
0
  11
0.60356
  21
0.19644
  31
0
  0
LINE
  8
0
  10
0.60356
  20
0.19644
  30
0
  11
0.6047
  21
0.19411
  31
0
  0
LINE
  8
0
  10
0.6047
  20
0.19411
  30
0
  11
0.60528
  21
0.19167
  31
0
  0
LINE
  8
0
  10
0.60528
  20
0.19167
  30
0
  11
0.60478
  21
0.189
  31
0
  0
LINE
  8
0
  10
0.60478
  20
0.189
  30
0
  11
0.60403
  21
0.18631
  31
0
  0
LINE
  8
0
  10
0.60403
  20
0.18631
  30
0
  11
0.60304
  21
0.18359
  31
0
  0
LINE
  8
0
  10
0.60304
  20
0.18359
  30
0
  11
0.60183
  21
0.18087
  31
0
  0
LINE
  8
0
  10
0.60183
  20
0.18087
  30
0
  11
0.60041
  21
0.17814
  31
0
  0
LINE
  8
0
  10
0.60041
  20
0.17814
  30
0
  11
0.59878
  21
0.17544
  31
0
  0
LINE
  8
0
  10
0.59878
  20
0.17544
  30
0
  11
0.58991
  21
0.175
  31
0
  0
LINE
  8
0
  10
0.58991
  20
0.175
  30
0
  11
0.58105
  21
0.17544
  31
0
  0
LINE
  8
0
  10
0.58105
  20
0.17544
  30
0
  11
0.57942
  21
0.17814
  31
0
  0
LINE
  8
0
  10
0.57942
  20
0.17814
  30
0
  11
0.578
  21
0.18087
  31
0
  0
LINE
  8
0
  10
0.578
  20
0.18087
  30
0
  11
0.57679
  21
0.18359
  31
0
  0
LINE
  8
0
  10
0.57679
  20
0.18359
  30
0
  11
0.5758
  21
0.18631
  31
0
  0
LINE
  8
0
  10
0.5758
  20
0.18631
  30
0
  11
0.57505
  21
0.189
  31
0
  0
LINE
  8
0
  10
0.57505
  20
0.189
  30
0
  11
0.57454
  21
0.19167
  31
0
  0
LINE
  8
0
  10
0.57454
  20
0.19167
  30
0
  11
0.57513
  21
0.19411
  31
0
  0
LINE
  8
0
  10
0.57513
  20
0.19411
  30
0
  11
0.57627
  21
0.19644
  31
0
  0
LINE
  8
0
  10
0.57627
  20
0.19644
  30
0
  11
0.5772
  21
0.19882
  31
0
  0
LINE
  8
0
  10
0.5772
  20
0.19882
  30
0
  11
0.5779
  21
0.20125
  31
0
  0
LINE
  8
0
  10
0.5779
  20
0.20125
  30
0
  11
0.57833
  21
0.20372
  31
0
  0
LINE
  8
0
  10
0.57833
  20
0.20372
  30
0
  11
0.57845
  21
0.20626
  31
0
  0
LINE
  8
0
  10
0.57845
  20
0.20626
  30
0
  11
0.57836
  21
0.20755
  31
0
  0
LINE
  8
0
  10
0.57836
  20
0.20755
  30
0
  11
0.57816
  21
0.20888
  31
0
  0
LINE
  8
0
  10
0.57816
  20
0.20888
  30
0
  11
0.57779
  21
0.21024
  31
0
  0
LINE
  8
0
  10
0.57779
  20
0.21024
  30
0
  11
0.57753
  21
0.21095
  31
0
  0
LINE
  8
0
  10
0.57753
  20
0.21095
  30
0
  11
0.5772
  21
0.21167
  31
0
  0
LINE
  8
0
  10
0.5772
  20
0.21167
  30
0
  11
0.57678
  21
0.21242
  31
0
  0
LINE
  8
0
  10
0.57678
  20
0.21242
  30
0
  11
0.57622
  21
0.21321
  31
0
  0
LINE
  8
0
  10
0.57622
  20
0.21321
  30
0
  11
0.57539
  21
0.21409
  31
0
  0
LINE
  8
0
  10
0.57539
  20
0.21409
  30
0
  11
0.57306
  21
0.21548
  31
0
  0
LINE
  8
0
  10
0.57306
  20
0.21548
  30
0
  11
0.5638
  21
0.21968
  31
0
  0
LINE
  8
0
  10
0.5638
  20
0.21968
  30
0
  11
0.55553
  21
0.2256
  31
0
  0
LINE
  8
0
  10
0.55553
  20
0.2256
  30
0
  11
0.55316
  21
0.22693
  31
0
  0
LINE
  8
0
  10
0.55316
  20
0.22693
  30
0
  11
0.55199
  21
0.2272
  31
0
  0
LINE
  8
0
  10
0.55199
  20
0.2272
  30
0
  11
0.55102
  21
0.22729
  31
0
  0
LINE
  8
0
  10
0.55102
  20
0.22729
  30
0
  11
0.55016
  21
0.22728
  31
0
  0
LINE
  8
0
  10
0.55016
  20
0.22728
  30
0
  11
0.54937
  21
0.22721
  31
0
  0
LINE
  8
0
  10
0.54937
  20
0.22721
  30
0
  11
0.54863
  21
0.22708
  31
0
  0
LINE
  8
0
  10
0.54863
  20
0.22708
  30
0
  11
0.54727
  21
0.22671
  31
0
  0
LINE
  8
0
  10
0.54727
  20
0.22671
  30
0
  11
0.54601
  21
0.22623
  31
0
  0
LINE
  8
0
  10
0.54601
  20
0.22623
  30
0
  11
0.54485
  21
0.22566
  31
0
  0
LINE
  8
0
  10
0.54485
  20
0.22566
  30
0
  11
0.54271
  21
0.22429
  31
0
  0
LINE
  8
0
  10
0.54271
  20
0.22429
  30
0
  11
0.54078
  21
0.22268
  31
0
  0
LINE
  8
0
  10
0.54078
  20
0.22268
  30
0
  11
0.53903
  21
0.22086
  31
0
  0
LINE
  8
0
  10
0.53903
  20
0.22086
  30
0
  11
0.53744
  21
0.21886
  31
0
  0
LINE
  8
0
  10
0.53744
  20
0.21886
  30
0
  11
0.53599
  21
0.21671
  31
0
  0
LINE
  8
0
  10
0.53599
  20
0.21671
  30
0
  11
0.53417
  21
0.21498
  31
0
  0
LINE
  8
0
  10
0.53417
  20
0.21498
  30
0
  11
0.53161
  21
0.21408
  31
0
  0
LINE
  8
0
  10
0.53161
  20
0.21408
  30
0
  11
0.52889
  21
0.21339
  31
0
  0
LINE
  8
0
  10
0.52889
  20
0.21339
  30
0
  11
0.52605
  21
0.21288
  31
0
  0
LINE
  8
0
  10
0.52605
  20
0.21288
  30
0
  11
0.52308
  21
0.21257
  31
0
  0
LINE
  8
0
  10
0.52308
  20
0.21257
  30
0
  11
0.52002
  21
0.21244
  31
0
  0
LINE
  8
0
  10
0.52002
  20
0.21244
  30
0
  11
0.51686
  21
0.2125
  31
0
  0
LINE
  8
0
  10
0.51686
  20
0.2125
  30
0
  11
0.51205
  21
0.21996
  31
0
  0
LINE
  8
0
  10
0.51205
  20
0.21996
  30
0
  11
0.50799
  21
0.22785
  31
0
  0
LINE
  8
0
  10
0.50799
  20
0.22785
  30
0
  11
0.50952
  21
0.23062
  31
0
  0
LINE
  8
0
  10
0.50952
  20
0.23062
  30
0
  11
0.51117
  21
0.23321
  31
0
  0
LINE
  8
0
  10
0.51117
  20
0.23321
  30
0
  11
0.51292
  21
0.23562
  31
0
  0
LINE
  8
0
  10
0.51292
  20
0.23562
  30
0
  11
0.51478
  21
0.23783
  31
0
  0
LINE
  8
0
  10
0.51478
  20
0.23783
  30
0
  11
0.51674
  21
0.23984
  31
0
  0
LINE
  8
0
  10
0.51674
  20
0.23984
  30
0
  11
0.5188
  21
0.2416
  31
0
  0
LINE
  8
0
  10
0.5188
  20
0.2416
  30
0
  11
0.5212
  21
0.24232
  31
0
  0
LINE
  8
0
  10
0.5212
  20
0.24232
  30
0
  11
0.5238
  21
0.24249
  31
0
  0
LINE
  8
0
  10
0.5238
  20
0.24249
  30
0
  11
0.52632
  21
0.24288
  31
0
  0
LINE
  8
0
  10
0.52632
  20
0.24288
  30
0
  11
0.52877
  21
0.24349
  31
0
  0
LINE
  8
0
  10
0.52877
  20
0.24349
  30
0
  11
0.53113
  21
0.24435
  31
0
  0
LINE
  8
0
  10
0.53113
  20
0.24435
  30
0
  11
0.53338
  21
0.24551
  31
0
  0
LINE
  8
0
  10
0.53338
  20
0.24551
  30
0
  11
0.53446
  21
0.24624
  31
0
  0
LINE
  8
0
  10
0.53446
  20
0.24624
  30
0
  11
0.53551
  21
0.24708
  31
0
  0
LINE
  8
0
  10
0.53551
  20
0.24708
  30
0
  11
0.53651
  21
0.24808
  31
0
  0
LINE
  8
0
  10
0.53651
  20
0.24808
  30
0
  11
0.53698
  21
0.24865
  31
0
  0
LINE
  8
0
  10
0.53698
  20
0.24865
  30
0
  11
0.53745
  21
0.2493
  31
0
  0
LINE
  8
0
  10
0.53745
  20
0.2493
  30
0
  11
0.53788
  21
0.25004
  31
0
  0
LINE
  8
0
  10
0.53788
  20
0.25004
  30
0
  11
0.53829
  21
0.25092
  31
0
  0
LINE
  8
0
  10
0.53829
  20
0.25092
  30
0
  11
0.53864
  21
0.25208
  31
0
  0
LINE
  8
0
  10
0.53864
  20
0.25208
  30
0
  11
0.53867
  21
0.25479
  31
0
  0
LINE
  8
0
  10
0.53867
  20
0.25479
  30
0
  11
0.53768
  21
0.26491
  31
0
  0
LINE
  8
0
  10
0.53768
  20
0.26491
  30
0
  11
0.53867
  21
0.27504
  31
0
  0
LINE
  8
0
  10
1.08991
  20
0.26491
  30
0
  11
1.08991
  21
0.26491
  31
0
  0
LINE
  8
0
  10
1.08991
  20
0.26491
  30
0
  11
1.07288
  21
0.39432
  31
0
  0
LINE
  8
0
  10
1.07288
  20
0.39432
  30
0
  11
1.02293
  21
0.51491
  31
0
  0
LINE
  8
0
  10
1.02293
  20
0.51491
  30
0
  11
0.94347
  21
0.61847
  31
0
  0
LINE
  8
0
  10
0.94347
  20
0.61847
  30
0
  11
0.83991
  21
0.69793
  31
0
  0
LINE
  8
0
  10
0.83991
  20
0.69793
  30
0
  11
0.71932
  21
0.74788
  31
0
  0
LINE
  8
0
  10
0.71932
  20
0.74788
  30
0
  11
0.58991
  21
0.76491
  31
0
  0
LINE
  8
0
  10
0.58991
  20
0.76491
  30
0
  11
0.46051
  21
0.74788
  31
0
  0
LINE
  8
0
  10
0.46051
  20
0.74788
  30
0
  11
0.33991
  21
0.69793
  31
0
  0
LINE
  8
0
  10
0.33991
  20
0.69793
  30
0
  11
0.23636
  21
0.61847
  31
0
  0
LINE
  8
0
  10
0.23636
  20
0.61847
  30
0
  11
0.1569
  21
0.51491
  31
0
  0
LINE
  8
0
  10
0.1569
  20
0.51491
  30
0
  11
0.10695
  21
0.39432
  31
0
  0
LINE
  8
0
  10
0.10695
  20
0.39432
  30
0
  11
0.08991
  21
0.26491
  31
0
  0
LINE
  8
0
  10
0.08991
  20
0.26491
  30
0
  11
0.10695
  21
0.13551
  31
0
  0
LINE
  8
0
  10
0.10695
  20
0.13551
  30
0
  11
0.1569
  21
0.01491
  31
0
  0
LINE
  8
0
  10
0.1569
  20
0.01491
  30
0
  11
0.23636
  21
-0.08864
  31
0
  0
LINE
  8
0
  10
0.23636
  20
-0.08864
  30
0
  11
0.33991
  21
-0.1681
  31
0
  0
LINE
  8
0
  10
0.33991
  20
-0.1681
  30
0
  11
0.46051
  21
-0.21805
  31
0
  0
LINE
  8
0
  10
0.46051
  20
-0.21805
  30
0
  11
0.58991
  21
-0.23509
  31
0
  0
LINE
  8
0
  10
0.58991
  20
-0.23509
  30
0
  11
0.71932
  21
-0.21805
  31
0
  0
LINE
  8
0
  10
0.71932
  20
-0.21805
  30
0
  11
0.83991
  21
-0.1681
  31
0
  0
LINE
  8
0
  10
0.83991
  20
-0.1681
  30
0
  11
0.94347
  21
-0.08864
  31
0
  0
LINE
  8
0
  10
0.94347
  20
-0.08864
  30
0
  11
1.02293
  21
0.01491
  31
0
  0
LINE
  8
0
  10
1.02293
  20
0.01491
  30
0
  11
1.07288
  21
0.13551
  31
0
  0
LINE
  8
0
  10
1.07288
  20
0.13551
  30
0
  11
1.08991
  21
0.26491
  31
0
  0
LINE
  8
0
  10
1.08991
  20
0.26491
  30
0
  11
1.08991
  21
0.26491
  31
0
  0
LINE
  8
0
  10
0.54468
  20
0.29103
  30
0
  11
0.51205
  21
0.30987
  31
0
  0
LINE
  8
0
  10
0.58991
  20
0.31715
  30
0
  11
0.58991
  21
0.35483
  31
0
  0
LINE
  8
0
  10
0.63515
  20
0.29103
  30
0
  11
0.66778
  21
0.30987
  31
0
  0
LINE
  8
0
  10
0.63515
  20
0.2388
  30
0
  11
0.66778
  21
0.21996
  31
0
  0
LINE
  8
0
  10
0.58991
  20
0.21268
  30
0
  11
0.58991
  21
0.175
  31
0
  0
LINE
  8
0
  10
0.54468
  20
0.2388
  30
0
  11
0.51205
  21
0.21996
  31
0
  0
LINE
  8
0
  10
0.66491
  20
0.26491
  30
0
  11
0.66491
  21
0.26491
  31
0
  0
LINE
  8
0
  10
0.66491
  20
0.26491
  30
0
  11
0.66477
  21
0.26962
  31
0
  0
LINE
  8
0
  10
0.66477
  20
0.26962
  30
0
  11
0.66432
  21
0.27431
  31
0
  0
LINE
  8
0
  10
0.66432
  20
0.27431
  30
0
  11
0.66359
  21
0.27897
  31
0
  0
LINE
  8
0
  10
0.66359
  20
0.27897
  30
0
  11
0.66256
  21
0.28357
  31
0
  0
LINE
  8
0
  10
0.66256
  20
0.28357
  30
0
  11
0.66124
  21
0.28809
  31
0
  0
LINE
  8
0
  10
0.66124
  20
0.28809
  30
0
  11
0.65965
  21
0.29252
  31
0
  0
LINE
  8
0
  10
0.65965
  20
0.29252
  30
0
  11
0.65778
  21
0.29685
  31
0
  0
LINE
  8
0
  10
0.65778
  20
0.29685
  30
0
  11
0.65564
  21
0.30105
  31
0
  0
LINE
  8
0
  10
0.65564
  20
0.30105
  30
0
  11
0.65324
  21
0.3051
  31
0
  0
LINE
  8
0
  10
0.65324
  20
0.3051
  30
0
  11
0.65059
  21
0.309
  31
0
  0
LINE
  8
0
  10
0.65059
  20
0.309
  30
0
  11
0.6477
  21
0.31272
  31
0
  0
LINE
  8
0
  10
0.6477
  20
0.31272
  30
0
  11
0.64459
  21
0.31626
  31
0
  0
LINE
  8
0
  10
0.64459
  20
0.31626
  30
0
  11
0.64126
  21
0.31959
  31
0
  0
LINE
  8
0
  10
0.64126
  20
0.31959
  30
0
  11
0.63772
  21
0.3227
  31
0
  0
LINE
  8
0
  10
0.63772
  20
0.3227
  30
0
  11
0.634
  21
0.32559
  31
0
  0
LINE
  8
0
  10
0.634
  20
0.32559
  30
0
  11
0.6301
  21
0.32824
  31
0
  0
LINE
  8
0
  10
0.6301
  20
0.32824
  30
0
  11
0.62605
  21
0.33064
  31
0
  0
LINE
  8
0
  10
0.62605
  20
0.33064
  30
0
  11
0.62185
  21
0.33278
  31
0
  0
LINE
  8
0
  10
0.62185
  20
0.33278
  30
0
  11
0.61752
  21
0.33465
  31
0
  0
LINE
  8
0
  10
0.61752
  20
0.33465
  30
0
  11
0.61309
  21
0.33624
  31
0
  0
LINE
  8
0
  10
0.61309
  20
0.33624
  30
0
  11
0.60857
  21
0.33756
  31
0
  0
LINE
  8
0
  10
0.60857
  20
0.33756
  30
0
  11
0.60397
  21
0.33859
  31
0
  0
LINE
  8
0
  10
0.60397
  20
0.33859
  30
0
  11
0.59931
  21
0.33932
  31
0
  0
LINE
  8
0
  10
0.59931
  20
0.33932
  30
0
  11
0.59462
  21
0.33977
  31
0
  0
LINE
  8
0
  10
0.59462
  20
0.33977
  30
0
  11
0.58991
  21
0.33991
  31
0
  0
LINE
  8
0
  10
0.58991
  20
0.33991
  30
0
  11
0.58521
  21
0.33977
  31
0
  0
LINE
  8
0
  10
0.58521
  20
0.33977
  30
0
  11
0.58051
  21
0.33932
  31
0
  0
LINE
  8
0
  10
0.58051
  20
0.33932
  30
0
  11
0.57586
  21
0.33859
  31
0
  0
LINE
  8
0
  10
0.57586
  20
0.33859
  30
0
  11
0.57126
  21
0.33756
  31
0
  0
LINE
  8
0
  10
0.57126
  20
0.33756
  30
0
  11
0.56674
  21
0.33624
  31
0
  0
LINE
  8
0
  10
0.56674
  20
0.33624
  30
0
  11
0.56231
  21
0.33465
  31
0
  0
LINE
  8
0
  10
0.56231
  20
0.33465
  30
0
  11
0.55798
  21
0.33278
  31
0
  0
LINE
  8
0
  10
0.55798
  20
0.33278
  30
0
  11
0.55378
  21
0.33064
  31
0
  0
LINE
  8
0
  10
0.55378
  20
0.33064
  30
0
  11
0.54973
  21
0.32824
  31
0
  0
LINE
  8
0
  10
0.54973
  20
0.32824
  30
0
  11
0.54583
  21
0.32559
  31
0
  0
LINE
  8
0
  10
0.54583
  20
0.32559
  30
0
  11
0.54211
  21
0.3227
  31
0
  0
LINE
  8
0
  10
0.54211
  20
0.3227
  30
0
  11
0.53857
  21
0.31959
  31
0
  0
LINE
  8
0
  10
0.53857
  20
0.31959
  30
0
  11
0.53524
  21
0.31626
  31
0
  0
LINE
  8
0
  10
0.53524
  20
0.31626
  30
0
  11
0.53213
  21
0.31272
  31
0
  0
LINE
  8
0
  10
0.53213
  20
0.31272
  30
0
  11
0.52924
  21
0.309
  31
0
  0
LINE
  8
0
  10
0.52924
  20
0.309
  30
0
  11
0.52659
  21
0.3051
  31
0
  0
LINE
  8
0
  10
0.52659
  20
0.3051
  30
0
  11
0.52419
  21
0.30105
  31
0
  0
LINE
  8
0
  10
0.52419
  20
0.30105
  30
0
  11
0.52205
  21
0.29685
  31
0
  0
LINE
  8
0
  10
0.52205
  20
0.29685
  30
0
  11
0.52018
  21
0.29252
  31
0
  0
LINE
  8
0
  10
0.52018
  20
0.29252
  30
0
  11
0.51859
  21
0.28809
  31
0
  0
LINE
  8
0
  10
0.51859
  20
0.28809
  30
0
  11
0.51727
  21
0.28357
  31
0
  0
LINE
  8
0
  10
0.51727
  20
0.28357
  30
0
  11
0.51624
  21
0.27897
  31
0
  0
LINE
  8
0
  10
0.51624
  20
0.27897
  30
0
  11
0.51551
  21
0.27431
  31
0
  0
LINE
  8
0
  10
0.51551
  20
0.27431
  30
0
  11
0.51506
  21
0.26962
  31
0
  0
LINE
  8
0
  10
0.51506
  20
0.26962
  30
0
  11
0.51491
  21
0.26491
  31
0
  0
LINE
  8
0
  10
0.51491
  20
0.26491
  30
0
  11
0.51506
  21
0.26021
  31
0
  0
LINE
  8
0
  10
0.51506
  20
0.26021
  30
0
  11
0.51551
  21
0.25551
  31
0
  0
LINE
  8
0
  10
0.51551
  20
0.25551
  30
0
  11
0.51624
  21
0.25086
  31
0
  0
LINE
  8
0
  10
0.51624
  20
0.25086
  30
0
  11
0.51727
  21
0.24626
  31
0
  0
LINE
  8
0
  10
0.51727
  20
0.24626
  30
0
  11
0.51859
  21
0.24174
  31
0
  0
LINE
  8
0
  10
0.51859
  20
0.24174
  30
0
  11
0.52018
  21
0.23731
  31
0
  0
LINE
  8
0
  10
0.52018
  20
0.23731
  30
0
  11
0.52205
  21
0.23298
  31
0
  0
LINE
  8
0
  10
0.52205
  20
0.23298
  30
0
  11
0.52419
  21
0.22878
  31
0
  0
LINE
  8
0
  10
0.52419
  20
0.22878
  30
0
  11
0.52659
  21
0.22473
  31
0
  0
LINE
  8
0
  10
0.52659
  20
0.22473
  30
0
  11
0.52924
  21
0.22083
  31
0
  0
LINE
  8
0
  10
0.52924
  20
0.22083
  30
0
  11
0.53213
  21
0.21711
  31
0
  0
LINE
  8
0
  10
0.53213
  20
0.21711
  30
0
  11
0.53524
  21
0.21357
  31
0
  0
LINE
  8
0
  10
0.53524
  20
0.21357
  30
0
  11
0.53857
  21
0.21024
  31
0
  0
LINE
  8
0
  10
0.53857
  20
0.21024
  30
0
  11
0.54211
  21
0.20713
  31
0
  0
LINE
  8
0
  10
0.54211
  20
0.20713
  30
0
  11
0.54583
  21
0.20424
  31
0
  0
LINE
  8
0
  10
0.54583
  20
0.20424
  30
0
  11
0.54973
  21
0.20159
  31
0
  0
LINE
  8
0
  10
0.54973
  20
0.20159
  30
0
  11
0.55378
  21
0.19919
  31
0
  0
LINE
  8
0
  10
0.55378
  20
0.19919
  30
0
  11
0.55798
  21
0.19705
  31
0
  0
LINE
  8
0
  10
0.55798
  20
0.19705
  30
0
  11
0.56231
  21
0.19518
  31
0
  0
LINE
  8
0
  10
0.56231
  20
0.19518
  30
0
  11
0.56674
  21
0.19359
  31
0
  0
LINE
  8
0
  10
0.56674
  20
0.19359
  30
0
  11
0.57126
  21
0.19227
  31
0
  0
LINE
  8
0
  10
0.57126
  20
0.19227
  30
0
  11
0.57586
  21
0.19124
  31
0
  0
LINE
  8
0
  10
0.57586
  20
0.19124
  30
0
  11
0.58051
  21
0.19051
  31
0
  0
LINE
  8
0
  10
0.58051
  20
0.19051
  30
0
  11
0.58521
  21
0.19006
  31
0
  0
LINE
  8
0
  10
0.58521
  20
0.19006
  30
0
  11
0.58991
  21
0.18991
  31
0
  0
LINE
  8
0
  10
0.58991
  20
0.18991
  30
0
  11
0.59462
  21
0.19006
  31
0
  0
LINE
  8
0
  10
0.59462
  20
0.19006
  30
0
  11
0.59931
  21
0.19051
  31
0
  0
LINE
  8
0
  10
0.59931
  20
0.19051
  30
0
  11
0.60397
  21
0.19124
  31
0
  0
LINE
  8
0
  10
0.60397
  20
0.19124
  30
0
  11
0.60857
  21
0.19227
  31
0
  0
LINE
  8
0
  10
0.60857
  20
0.19227
  30
0
  11
0.61309
  21
0.19359
  31
0
  0
LINE
  8
0
  10
0.61309
  20
0.19359
  30
0
  11
0.61752
  21
0.19518
  31
0
  0
LINE
  8
0
  10
0.61752
  20
0.19518
  30
0
  11
0.62185
  21
0.19705
  31
0
  0
LINE
  8
0
  10
0.62185
  20
0.19705
  30
0
  11
0.62605
  21
0.19919
  31
0
  0
LINE
  8
0
  10
0.62605
  20
0.19919
  30
0
  11
0.6301
  21
0.20159
  31
0
  0
LINE
  8
0
  10
0.6301
  20
0.20159
  30
0
  11
0.634
  21
0.20424
  31
0
  0
LINE
  8
0
  10
0.634
  20
0.20424
  30
0
  11
0.63772
  21
0.20713
  31
0
  0
LINE
  8
0
  10
0.63772
  20
0.20713
  30
0
  11
0.64126
  21
0.21024
  31
0
  0
LINE
  8
0
  10
0.64126
  20
0.21024
  30
0
  11
0.64459
  21
0.21357
  31
0
  0
LINE
  8
0
  10
0.64459
  20
0.21357
  30
0
  11
0.6477
  21
0.21711
  31
0
  0
LINE
  8
0
  10
0.6477
  20
0.21711
  30
0
  11
0.65059
  21
0.22083
  31
0
  0
LINE
  8
0
  10
0.65059
  20
0.22083
  30
0
  11
0.65324
  21
0.22473
  31
0
  0
LINE
  8
0
  10
0.65324
  20
0.22473
  30
0
  11
0.65564
  21
0.22878
  31
0
  0
LINE
  8
0
  10
0.65564
  20
0.22878
  30
0
  11
0.65778
  21
0.23298
  31
0
  0
LINE
  8
0
  10
0.65778
  20
0.23298
  30
0
  11
0.65965
  21
0.23731
  31
0
  0
LINE
  8
0
  10
0.65965
  20
0.23731
  30
0
  11
0.66124
  21
0.24174
  31
0
  0
LINE
  8
0
  10
0.66124
  20
0.24174
  30
0
  11
0.66256
  21
0.24626
  31
0
  0
LINE
  8
0
  10
0.66256
  20
0.24626
  30
0
  11
0.66359
  21
0.25086
  31
0
  0
LINE
  8
0
  10
0.66359
  20
0.25086
  30
0
  11
0.66432
  21
0.25551
  31
0
  0
LINE
  8
0
  10
0.66432
  20
0.25551
  30
0
  11
0.66477
  21
0.26021
  31
0
  0
LINE
  8
0
  10
0.66477
  20
0.26021
  30
0
  11
0.66491
  21
0.26491
  31
0
  0
LINE
  8
0
  10
0.66491
  20
0.26491
  30
0
  11
0.66491
  21
0.26491
  31
0
  0
LINE
  8
0
  10
0.55994
  20
0.26491
  30
0
  11
0.61989
  21
0.26491
  31
0
  0
LINE
  8
0
  10
0.58991
  20
0.23494
  30
0
  11
0.58991
  21
0.29489
  31
0
  0
ENDSEC
  0
EOF
